<svg width="257" height="48" viewBox="0 0 257 48" fill="none" xmlns="http://www.w3.org/2000/svg">
<path d="M6.03906 7.96875L6.15625 7.26562C6.13021 7.05729 6.15625 6.875 6.23438 6.71875C6.33854 6.53646 6.40365 6.40625 6.42969 6.32812C6.45573 6.22396 6.45573 6.14583 6.42969 6.09375C6.42969 6.01562 6.42969 5.95052 6.42969 5.89844L6.58594 5.46875L6.50781 4.72656C6.50781 3.71094 6.58594 2.99479 6.74219 2.57812C6.89844 2.16146 6.97656 1.84896 6.97656 1.64062C7.10677 1.5625 7.23698 1.47135 7.36719 1.36719C7.4974 1.23698 7.64062 1.14583 7.79688 1.09375C7.92708 1.14583 8.04427 1.19792 8.14844 1.25C8.2526 1.27604 8.36979 1.35417 8.5 1.48438C8.65625 1.61458 8.8125 1.92708 8.96875 2.42188C9.125 2.89062 9.28125 3.39844 9.4375 3.94531C9.61979 4.49219 9.78906 5.03906 9.94531 5.58594C10.1276 6.10677 10.3359 6.4974 10.5703 6.75781C10.5703 7.46094 10.6875 7.95573 10.9219 8.24219C10.8958 8.29427 10.8828 8.3724 10.8828 8.47656C10.8828 8.55469 10.9219 8.77604 11 9.14062C11.4167 10.9896 11.7292 12.0182 11.9375 12.2266V12.4609L12.4062 14.1406C12.4844 14.4531 12.5495 14.7656 12.6016 15.0781C12.6536 15.3646 12.7969 15.625 13.0312 15.8594C13.0312 16.3281 13.1615 16.7057 13.4219 16.9922C13.474 17.2786 13.526 17.6302 13.5781 18.0469C13.6562 18.4635 13.7995 18.776 14.0078 18.9844C14.138 20.0521 14.3073 20.7292 14.5156 21.0156C14.75 21.276 14.8542 21.5104 14.8281 21.7188C14.75 22.0052 14.8021 22.3047 14.9844 22.6172C15.1667 22.9297 15.2578 23.1771 15.2578 23.3594C15.2839 23.5417 15.362 23.6979 15.4922 23.8281C15.7786 23.8281 16.026 23.7109 16.2344 23.4766C16.4688 23.2422 16.612 22.9818 16.6641 22.6953C16.7422 22.6953 16.8854 22.5521 17.0938 22.2656C18.1615 20.599 18.8516 19.6875 19.1641 19.5312C19.2161 19.2448 19.3203 19.0365 19.4766 18.9062C19.6589 18.75 19.737 18.5286 19.7109 18.2422C19.8151 18.1641 19.8932 18.0859 19.9453 18.0078C20.0234 17.9036 20.1276 17.8255 20.2578 17.7734C20.4401 17.2266 20.7135 16.8359 21.0781 16.6016C21.1042 16.5234 21.1172 16.4453 21.1172 16.3672C21.1432 16.263 21.1823 16.1719 21.2344 16.0938C21.3906 16.0417 21.4948 15.9635 21.5469 15.8594C21.625 15.7292 21.7292 15.638 21.8594 15.5859V15.5469C21.8594 15.3906 21.9245 15.2734 22.0547 15.1953C22.2109 15.0911 22.3151 14.987 22.3672 14.8828C22.4453 14.7526 22.5104 14.5573 22.5625 14.2969C22.6406 14.0365 22.7318 13.8802 22.8359 13.8281L23.0312 13.75C23.2135 13.5417 23.3438 13.2943 23.4219 13.0078C23.526 12.6953 23.6953 12.4349 23.9297 12.2266V11.9922H24.0859C24.138 11.9401 24.1641 11.849 24.1641 11.7188C24.1901 11.5885 24.2682 11.5104 24.3984 11.4844L24.3594 11.4062C24.3594 11.0417 24.4635 10.7552 24.6719 10.5469C24.8802 10.3125 24.9714 9.98698 24.9453 9.57031L25.2578 9.33594C25.3099 9.28385 25.3359 9.21875 25.3359 9.14062C25.3359 9.03646 25.349 8.95833 25.375 8.90625L25.7656 8.32031C25.8958 8.11198 26 7.89062 26.0781 7.65625C26.1562 7.39583 26.3125 7.20052 26.5469 7.07031V6.91406C26.5469 6.70573 26.612 6.51042 26.7422 6.32812C26.8984 6.11979 27.0026 5.95052 27.0547 5.82031C27.1068 5.66406 27.1328 5.53385 27.1328 5.42969C27.1589 5.29948 27.1849 5.20833 27.2109 5.15625C27.263 5.10417 27.3021 5.07812 27.3281 5.07812C27.4844 5.07812 27.5365 4.98698 27.4844 4.80469C27.4323 4.6224 27.4714 4.53125 27.6016 4.53125C27.7578 4.53125 27.8359 4.46615 27.8359 4.33594L27.9922 3.28125C27.9922 3.125 27.9792 3.00781 27.9531 2.92969C28.1094 2.82552 28.1875 2.70833 28.1875 2.57812C28.1875 2.44792 28.1615 2.35677 28.1094 2.30469C28.1354 2.20052 28.1875 2.13542 28.2656 2.10938C28.3438 2.05729 28.4089 2.00521 28.4609 1.95312V1.79688C28.4609 1.58854 28.5391 1.43229 28.6953 1.32812C28.8776 1.19792 29.0339 1.08073 29.1641 0.976562C29.3464 1.0026 29.4896 1.08073 29.5938 1.21094C29.6979 1.3151 29.8151 1.43229 29.9453 1.5625C29.8151 1.71875 29.75 2.00521 29.75 2.42188C29.75 2.8125 29.6979 3.125 29.5938 3.35938C29.5156 3.59375 29.4766 3.8151 29.4766 4.02344C29.4766 4.23177 29.5156 4.41406 29.5938 4.57031C29.6719 4.70052 29.7109 4.83073 29.7109 4.96094L29.6328 5.54688L29.7109 6.75781C29.7109 6.99219 29.6849 7.17448 29.6328 7.30469C29.6589 7.46094 29.6979 7.60417 29.75 7.73438C29.8021 7.83854 29.8411 7.96875 29.8672 8.125C29.8932 8.25521 29.8932 8.39844 29.8672 8.55469C29.8672 8.6849 29.8672 8.8151 29.8672 8.94531L30.1016 9.6875C30.1016 9.73958 30.0885 9.76562 30.0625 9.76562C30.0365 9.76562 30.0234 9.81771 30.0234 9.92188C30.0234 10.026 30.0755 10.2995 30.1797 10.7422C30.3099 11.1589 30.375 11.5495 30.375 11.9141V11.9922L30.2969 12.0312L30.4141 12.4609L30.2969 13.0078L30.5312 13.7891L30.4531 14.6875C30.4531 14.7656 30.5052 15.0651 30.6094 15.5859L30.5703 16.1719C30.5703 16.4323 30.6094 16.6276 30.6875 16.7578C30.7917 16.862 30.8698 17.0182 30.9219 17.2266L31 18.0859C31.026 18.2161 31.0521 18.3464 31.0781 18.4766C31.1042 18.5807 31.1302 18.724 31.1562 18.9062C31.1823 19.0625 31.1823 19.2448 31.1562 19.4531C31.1302 19.6354 31.1172 19.8698 31.1172 20.1562C31.1172 20.4427 31.1823 20.8464 31.3125 21.3672C31.3906 22.4609 31.5078 23.3333 31.6641 23.9844C31.8464 24.6094 31.9375 25.0521 31.9375 25.3125C31.9375 25.5469 31.8854 25.7552 31.7812 25.9375C32.0156 26.3542 32.1198 26.8359 32.0938 27.3828C32.0938 27.9297 32.1198 28.3594 32.1719 28.6719C32.25 28.9583 32.3151 29.1797 32.3672 29.3359C32.4193 29.4661 32.4453 29.6484 32.4453 29.8828C32.4453 30.0911 32.4844 30.3516 32.5625 30.6641C32.6667 30.9505 32.7318 31.237 32.7578 31.5234L33.0703 31.5625C33.487 31.5625 33.8516 31.5104 34.1641 31.4062C34.5026 31.3021 34.724 31.2109 34.8281 31.1328C34.9323 31.0547 35.0495 31.0286 35.1797 31.0547C35.3099 31.0547 35.4141 31.0547 35.4922 31.0547L36 30.9766C36.1302 30.9766 36.2214 31.0286 36.2734 31.1328C36.3255 31.2109 36.4167 31.263 36.5469 31.2891C36.599 31.3411 36.625 31.4453 36.625 31.6016C36.625 31.7318 36.599 31.875 36.5469 32.0312C36.3125 32.1875 36.1302 32.2656 36 32.2656C35.8958 32.2656 35.8177 32.2396 35.7656 32.1875C35.5052 32.4219 35.3229 32.5521 35.2188 32.5781C35.1406 32.5781 34.9583 32.5781 34.6719 32.5781L34.5156 32.6172C34.3333 32.6172 34.151 32.6562 33.9688 32.7344C33.8125 32.8125 33.6432 32.8646 33.4609 32.8906L32.8359 32.9688C32.6016 33.0469 32.3802 33.1641 32.1719 33.3203C31.9635 33.4505 31.7292 33.5156 31.4688 33.5156L30.6094 33.4375C30.4531 33.4375 30.1797 33.5156 29.7891 33.6719L29.3203 33.6328C29.112 33.6328 28.8906 33.6849 28.6562 33.7891C28.4479 33.8932 28.2135 33.9453 27.9531 33.9453H27.7578C27.4974 33.737 27.3672 33.5156 27.3672 33.2812C27.3672 33.0469 27.3932 32.8516 27.4453 32.6953C27.6016 32.5651 28.0312 32.4479 28.7344 32.3438C29.4635 32.2396 29.9453 32.1094 30.1797 31.9531C30.1276 31.7708 30.1016 31.6016 30.1016 31.4453C30.1276 31.263 30.1146 31.0677 30.0625 30.8594C30.0365 30.651 30.0104 30.5339 29.9844 30.5078C29.9583 30.4557 29.9453 30.3255 29.9453 30.1172C29.9453 29.9089 29.8932 29.6875 29.7891 29.4531C29.7109 29.2188 29.6458 28.9844 29.5938 28.75C29.5417 28.4896 29.5156 28.2031 29.5156 27.8906C29.5417 27.5521 29.5417 27.2266 29.5156 26.9141L29.3594 25.9375L29.4375 25.6641C29.4375 25.3776 29.3724 25.026 29.2422 24.6094C29.138 24.1927 29.0599 23.8932 29.0078 23.7109C28.9818 23.5026 28.9818 23.3594 29.0078 23.2812C29.0339 23.1771 29.0469 23.0729 29.0469 22.9688C29.0469 22.8646 29.0078 22.7734 28.9297 22.6953C28.9818 22.5911 29.0078 22.487 29.0078 22.3828C29.0078 22.2526 29.0339 22.1484 29.0859 22.0703C28.9297 21.4193 28.8385 20.7682 28.8125 20.1172C28.8125 19.4401 28.7734 18.7891 28.6953 18.1641L28.5391 17.6953C28.513 17.5911 28.5 17.487 28.5 17.3828C28.526 17.2526 28.5391 17.1354 28.5391 17.0312L28.3828 16.3281L28.4609 16.0156V15.6641C28.4609 14.9609 28.3958 14.5703 28.2656 14.4922C28.3438 14.4141 28.3568 14.2969 28.3047 14.1406C28.2786 13.9583 28.3047 13.8281 28.3828 13.75C28.3047 13.5677 28.2656 13.3594 28.2656 13.125L28.3047 12.0312C28.3047 11.849 28.2656 11.5755 28.1875 11.2109C28.1354 10.8203 28.1094 10.5729 28.1094 10.4688C28.1354 10.3646 28.1354 10.2344 28.1094 10.0781L27.8359 9.57031V9.10156C27.8359 8.86719 27.7839 8.71094 27.6797 8.63281H27.6406C27.4844 8.60677 27.3281 8.75 27.1719 9.0625C26.8073 9.27083 26.625 9.47917 26.625 9.6875C26.625 9.89583 26.5859 10 26.5078 10C26.4297 10 26.3646 10.026 26.3125 10.0781C26.2604 10.1302 26.2474 10.1823 26.2734 10.2344C26.2995 10.2865 26.2604 10.3906 26.1562 10.5469C26.0521 10.6771 25.987 10.8073 25.9609 10.9375C25.9349 11.0417 25.8958 11.1458 25.8438 11.25C25.7917 11.3281 25.7266 11.4062 25.6484 11.4844C25.5964 11.5365 25.5443 11.6016 25.4922 11.6797C25.4661 11.7578 25.4531 11.849 25.4531 11.9531C25.4792 12.0573 25.4922 12.1615 25.4922 12.2656C25.4922 12.3698 25.4141 12.526 25.2578 12.7344C25.1016 12.9427 24.9974 13.138 24.9453 13.3203C24.8672 13.3464 24.8021 13.3854 24.75 13.4375C24.724 13.4635 24.6458 13.4766 24.5156 13.4766C24.4635 13.8932 24.3333 14.2188 24.125 14.4531C23.9167 14.6875 23.7214 14.974 23.5391 15.3125C23.4089 15.4167 23.2396 15.5078 23.0312 15.5859C23.0052 15.6641 22.9531 15.7812 22.875 15.9375C22.8229 16.0677 22.7318 16.263 22.6016 16.5234C22.4974 16.7578 22.4714 16.9401 22.5234 17.0703C22.4974 17.1224 22.4583 17.1484 22.4062 17.1484C22.3542 17.1484 22.3021 17.1745 22.25 17.2266C22.1979 17.2786 22.1719 17.3568 22.1719 17.4609C22.1719 17.5391 22.0938 17.6042 21.9375 17.6562C21.651 17.7865 21.5208 17.9297 21.5469 18.0859C21.599 18.2422 21.5599 18.4115 21.4297 18.5938C21.3516 18.9323 21.1953 19.1927 20.9609 19.375C20.7266 19.5312 20.5703 19.6615 20.4922 19.7656C20.4401 19.8698 20.401 19.974 20.375 20.0781C20.349 20.1562 20.3099 20.2474 20.2578 20.3516L20.1016 20.4297C19.737 21.1589 19.5156 21.5625 19.4375 21.6406C19.3333 21.7448 19.099 22.0703 18.7344 22.6172L18.3047 23.2812C18.1745 23.4635 18.1094 23.5677 18.1094 23.5938C17.5104 23.776 17.1458 24.2578 17.0156 25.0391C16.7031 25.2214 16.4818 25.3776 16.3516 25.5078C15.8307 26.6276 15.349 27.1875 14.9062 27.1875C14.6198 27.1875 14.4115 27.1354 14.2812 27.0312C14.1771 26.901 14.0339 26.8099 13.8516 26.7578C13.6953 26.3151 13.5521 26.0417 13.4219 25.9375V25.625C13.4219 25.2865 13.3828 25.0651 13.3047 24.9609C13.2266 24.8568 13.1354 24.6615 13.0312 24.375L12.6406 22.4219C12.6146 22.2917 12.5495 22.2005 12.4453 22.1484C12.3411 22.0703 12.276 21.888 12.25 21.6016C12.224 21.2891 12.1458 21.0938 12.0156 21.0156L12.0547 20.7812C12.0547 20.5208 11.9245 20.0911 11.6641 19.4922C11.4297 18.8932 11.2604 18.5677 11.1562 18.5156C11.1823 18.4896 11.1953 18.3984 11.1953 18.2422C11.1953 18.0859 11.1432 17.7865 11.0391 17.3438C10.9349 16.875 10.8307 16.5365 10.7266 16.3281C10.6224 16.1198 10.5573 15.8984 10.5312 15.6641C10.5052 15.4297 10.4531 15.1823 10.375 14.9219C10.2969 14.6615 10.2578 14.4531 10.2578 14.2969V14.2578L10.1016 14.0625L10.0234 13.5156C9.9974 13.3854 9.95833 13.2422 9.90625 13.0859C9.85417 12.9297 9.80208 12.7734 9.75 12.6172L9.67188 12.0703C9.59375 11.9141 9.5026 11.7708 9.39844 11.6406C9.29427 11.4844 9.1901 11.3281 9.08594 11.1719C9.08594 10.9635 9.08594 10.7552 9.08594 10.5469C9.08594 10.3385 9.02083 10.1562 8.89062 10V9.6875C8.89062 9.16667 8.73438 8.90625 8.42188 8.90625C8.34375 8.90625 8.30469 8.98438 8.30469 9.14062C8.33073 9.27083 8.34375 9.36198 8.34375 9.41406V9.49219C8.23958 9.57031 8.1875 9.7526 8.1875 10.0391C8.1875 10.2995 8.26562 10.4818 8.42188 10.5859C8.29167 10.8984 8.22656 11.276 8.22656 11.7188C8.2526 12.1615 8.23958 12.5651 8.1875 12.9297L8.10938 13.4766L8.1875 13.8672L8.03125 14.5703L8.10938 15.3906V15.9375C8.10938 16.1198 8.08333 16.2891 8.03125 16.4453L7.875 16.9141C7.82292 17.1484 7.8099 17.3958 7.83594 17.6562C7.86198 17.8906 7.84896 18.112 7.79688 18.3203C7.74479 18.5026 7.71875 18.6198 7.71875 18.6719C7.66667 18.8802 7.64062 19.0365 7.64062 19.1406V19.4922C7.64062 19.7266 7.60156 19.9609 7.52344 20.1953C7.47135 20.4297 7.43229 20.6771 7.40625 20.9375C7.38021 21.1719 7.36719 21.4062 7.36719 21.6406C7.39323 21.875 7.38021 22.0964 7.32812 22.3047C7.30208 22.487 7.27604 22.6172 7.25 22.6953C7.25 22.7734 7.23698 22.8516 7.21094 22.9297C7.21094 22.9818 7.21094 23.0469 7.21094 23.125V23.5156L7.05469 24.2969C7.0026 24.4531 6.97656 24.6094 6.97656 24.7656C7.0026 24.9219 7.01562 25.1302 7.01562 25.3906C7.01562 25.625 6.98958 25.8073 6.9375 25.9375C6.72917 26.276 6.63802 26.6406 6.66406 27.0312C6.71615 27.4219 6.6901 27.7995 6.58594 28.1641C6.48177 28.5026 6.42969 28.9583 6.42969 29.5312C6.42969 30.1042 6.36458 30.7161 6.23438 31.3672C6.57292 31.7578 6.82031 31.9531 6.97656 31.9531C7.15885 31.9531 7.25 32.0312 7.25 32.1875C7.25 32.2396 7.30208 32.2917 7.40625 32.3438C7.38021 32.526 7.34115 32.6562 7.28906 32.7344C7.23698 32.7865 7.22396 32.9167 7.25 33.125H7.17188L6.89844 33.2031H6.82031C6.79427 33.1771 6.75521 33.1641 6.70312 33.1641L6.58594 33.3594C6.48177 33.3073 6.28646 33.2812 6 33.2812C5.73958 33.2812 5.57031 33.3333 5.49219 33.4375C5.28385 33.3333 5.01042 33.2812 4.67188 33.2812C4.35938 33.2812 4.17708 33.3464 4.125 33.4766C4.09896 33.5807 4.02083 33.6458 3.89062 33.6719C3.86458 33.6458 3.8125 33.6328 3.73438 33.6328L1.97656 33.8672H1.23438C0.791667 33.8672 0.544271 33.8281 0.492188 33.75C0.414062 33.6458 0.361979 33.5807 0.335938 33.5547C0.309896 33.5026 0.244792 33.4635 0.140625 33.4375C0.114583 33.4115 0.101562 33.3724 0.101562 33.3203L0.257812 33.0078C0.179688 32.9297 0.140625 32.8646 0.140625 32.8125C0.140625 32.7344 0.166667 32.6432 0.21875 32.5391C0.557292 32.3047 0.921875 32.1875 1.3125 32.1875C1.72917 32.1875 2.11979 32.1094 2.48438 31.9531C2.5625 31.9792 2.69271 31.9922 2.875 31.9922C3.08333 31.9922 3.26562 31.9661 3.42188 31.9141C3.57812 31.862 3.73438 31.8099 3.89062 31.7578C3.91667 31.6536 3.92969 31.5234 3.92969 31.3672L3.89062 30.5078L4.04688 29.375L3.96875 28.7891C3.96875 28.6589 3.99479 28.4766 4.04688 28.2422C4.125 27.9818 4.15104 27.7734 4.125 27.6172C4.125 27.4609 4.13802 27.3047 4.16406 27.1484C4.1901 26.9661 4.21615 26.8099 4.24219 26.6797C4.29427 26.5495 4.34635 26.4062 4.39844 26.25C4.45052 26.0938 4.47656 25.7943 4.47656 25.3516C4.47656 24.8828 4.54167 24.4271 4.67188 23.9844C4.82812 23.5156 4.90625 23.0599 4.90625 22.6172L4.82812 22.1484C4.82812 22.0703 4.84115 22.0182 4.86719 21.9922C4.91927 21.9661 4.95833 21.862 4.98438 21.6797C5.01042 21.4974 5.02344 21.276 5.02344 21.0156C5.04948 20.7292 5.08854 20.4167 5.14062 20.0781C5.21875 19.7135 5.25781 19.4401 5.25781 19.2578L5.17969 18.8281C5.17969 18.6979 5.19271 18.5677 5.21875 18.4375C5.42708 17.8646 5.53125 17.2656 5.53125 16.6406V16.0938C5.53125 16.0156 5.51823 15.9375 5.49219 15.8594C5.64844 15.3906 5.72656 15.0651 5.72656 14.8828V14.2969L5.88281 13.5938L5.80469 13.1641L5.88281 12.6953L5.80469 12.1875L5.96094 11.4844L5.92188 10.5078L6.11719 9.14062C6.11719 9.08854 6.09115 9.03646 6.03906 8.98438C6.01302 8.93229 6.01302 8.89323 6.03906 8.86719C6.0651 8.8151 6.07812 8.75 6.07812 8.67188L6.03906 7.96875ZM46 19.3359L47.1328 20.9375V21.0156C47.1328 21.4062 47.237 21.7318 47.4453 21.9922C47.6797 22.2526 47.862 22.5651 47.9922 22.9297C47.9141 23.0339 47.8359 23.125 47.7578 23.2031C47.6797 23.2812 47.6146 23.3854 47.5625 23.5156C47.3802 23.5677 47.25 23.5938 47.1719 23.5938L46.5469 23.5547C46.3906 23.5547 46.2604 23.5938 46.1562 23.6719C46.026 23.5938 45.8698 23.5547 45.6875 23.5547H45.2188C44.9583 23.5547 44.737 23.5156 44.5547 23.4375C44.4505 23.4635 44.3724 23.5417 44.3203 23.6719C44.2682 23.8021 44.0859 23.8672 43.7734 23.8672C43.4609 23.8411 43.2266 23.8542 43.0703 23.9062C42.9401 23.9323 42.8359 23.9714 42.7578 24.0234C42.6797 24.0495 42.5625 24.0625 42.4062 24.0625L41.625 23.9844H40.6875C40.4531 24.349 40.3359 25.3125 40.3359 26.875L40.6094 28.5938L40.5703 29.4141C40.5703 29.7005 40.5964 29.8698 40.6484 29.9219C40.8307 30.1562 40.9219 30.4167 40.9219 30.7031C40.9219 30.9635 40.987 31.237 41.1172 31.5234C41.2734 31.8099 41.3646 32.0443 41.3906 32.2266C41.4427 32.3828 41.5208 32.5911 41.625 32.8516C41.7292 33.112 41.9115 33.3594 42.1719 33.5938C42.4583 33.8021 42.7708 33.9062 43.1094 33.9062C43.474 33.9062 43.7734 33.8151 44.0078 33.6328C44.2682 33.4245 44.4635 33.2812 44.5938 33.2031C44.75 33.125 44.8411 33.099 44.8672 33.125C44.8932 33.125 44.9453 33.099 45.0234 33.0469C45.1276 32.9948 45.2839 32.8646 45.4922 32.6562C45.7266 32.4479 45.8698 32.3047 45.9219 32.2266C45.974 32.1484 46.026 32.0443 46.0781 31.9141C46.1302 31.7578 46.1953 31.5495 46.2734 31.2891C46.3776 31.0286 46.5208 30.8984 46.7031 30.8984C46.8854 30.8984 47.0677 31.0417 47.25 31.3281C47.4583 31.5885 47.5625 31.862 47.5625 32.1484C47.5625 32.4089 47.4062 32.6172 47.0938 32.7734C46.8073 32.9297 46.625 33.151 46.5469 33.4375C46.1302 33.6198 45.8828 33.8021 45.8047 33.9844C45.7526 34.1406 45.6875 34.2448 45.6094 34.2969C45.5573 34.3229 45.5182 34.3359 45.4922 34.3359C45.4661 34.3099 45.4271 34.2969 45.375 34.2969C45.3229 34.2969 45.2969 34.349 45.2969 34.4531C45.1406 34.5573 44.9844 34.6875 44.8281 34.8438C44.5156 34.7396 44.2031 34.7917 43.8906 35C43.5781 35.2344 43.2786 35.3516 42.9922 35.3516C42.7057 35.3516 42.4453 35.2474 42.2109 35.0391C42.0807 35.0911 41.9375 35.1172 41.7812 35.1172C41.625 35.1172 41.4688 35.1432 41.3125 35.1953C41.1042 34.987 40.8698 34.8307 40.6094 34.7266C40.349 34.6224 40.0885 34.5052 39.8281 34.375C39.776 34.2188 39.7109 34.1406 39.6328 34.1406C39.5807 34.1146 39.5807 34.0104 39.6328 33.8281C39.5286 33.776 39.4245 33.724 39.3203 33.6719C39.2422 33.6198 39.151 33.5677 39.0469 33.5156C38.9688 33.3333 38.8255 33.138 38.6172 32.9297V32.4219C38.4089 32.3438 38.2656 32.1875 38.1875 31.9531C38.1354 31.6927 38.0052 31.4974 37.7969 31.3672C37.7708 31.0547 37.7057 30.7552 37.6016 30.4688C37.5234 30.1562 37.4844 29.8438 37.4844 29.5312V28.8281L37.2109 27.1875V26.875L37.3281 26.5234L37.2109 26.1719L37.4844 24.5312L37.6406 24.2969C37.7708 23.6198 37.875 23.0078 37.9531 22.4609C38.0573 21.9141 38.2396 21.3932 38.5 20.8984C38.7865 20.3776 39.0729 19.8958 39.3594 19.4531C39.6458 18.9844 39.8281 18.5547 39.9062 18.1641C40.6875 17.5391 41.4818 17.0052 42.2891 16.5625C42.4193 16.6146 42.5234 16.6406 42.6016 16.6406L43.2266 16.5234C43.4609 16.5234 43.7344 16.6797 44.0469 16.9922L44.4766 16.9141H44.6328C44.6849 16.9922 44.7109 17.0833 44.7109 17.1875C44.737 17.2917 44.8021 17.3568 44.9062 17.3828C45.1927 17.6172 45.362 17.9036 45.4141 18.2422C45.4922 18.5547 45.6875 18.8021 46 18.9844V19.3359ZM44.9062 22.6172L46.2344 22.3438V22.1875C46.2344 22.0312 46.2083 21.875 46.1562 21.7188C46.1302 21.5625 46.1042 21.4062 46.0781 21.25C45.9219 21.0677 45.7656 20.9245 45.6094 20.8203C45.4792 20.7161 45.4271 20.5208 45.4531 20.2344C45.2188 20.1562 45.0625 19.987 44.9844 19.7266C44.9323 19.4661 44.8802 19.2188 44.8281 18.9844C44.776 18.9844 44.75 18.9323 44.75 18.8281C44.5677 18.6979 44.4375 18.5938 44.3594 18.5156C44.0729 18.2292 43.6172 18.0859 42.9922 18.0859C42.3932 18.0859 42.0026 18.1641 41.8203 18.3203C41.6641 18.4505 41.4948 18.8411 41.3125 19.4922C41.1302 20.1172 40.9609 20.651 40.8047 21.0938C40.6745 21.5104 40.6094 21.9401 40.6094 22.3828V22.6172L41.8594 22.7734L42.7578 22.6953L43.0703 22.7734L43.6953 22.6172L44.2422 22.6953L44.5547 22.5391L44.9062 22.6172ZM53.9297 16.5234L53.8125 17.1094C53.8125 17.3958 53.9688 17.6172 54.2812 17.7734C54.3594 17.7474 54.4896 17.6562 54.6719 17.5C54.8542 17.3177 55.1406 17.0703 55.5312 16.7578C55.9219 16.4193 56.1432 16.1589 56.1953 15.9766C56.4036 15.8464 56.651 15.6641 56.9375 15.4297C57.224 15.1693 57.3932 15 57.4453 14.9219H57.6016C58.0964 14.4271 58.6953 14.0885 59.3984 13.9062C60.1276 13.6979 60.6094 13.5938 60.8438 13.5938C61.599 13.5938 62.224 13.8802 62.7188 14.4531C62.8229 14.6094 62.9271 14.7786 63.0312 14.9609C63.1615 15.1172 63.3307 15.2995 63.5391 15.5078C63.6953 15.612 63.7995 15.8594 63.8516 16.25C63.9297 16.6146 64.0208 16.875 64.125 17.0312C64.0729 17.1354 63.9948 17.2917 63.8906 17.5C63.8125 17.6823 63.7083 17.8776 63.5781 18.0859C63.474 18.2682 63.3698 18.4505 63.2656 18.6328C63.1875 18.7891 63.1094 18.8932 63.0312 18.9453C62.9792 18.9974 62.8359 19.1016 62.6016 19.2578C62.3672 19.388 62.2109 19.5312 62.1328 19.6875C62.1068 19.7135 61.9766 19.7526 61.7422 19.8047C61.5339 19.8568 61.4036 19.9089 61.3516 19.9609H61.2734C61.1953 19.987 61.1432 19.9609 61.1172 19.8828C61.1172 19.8047 61.0911 19.7396 61.0391 19.6875H60.8828C60.6745 19.6875 60.5312 19.6354 60.4531 19.5312L60.1016 19.2188C60.2578 18.8021 60.4661 18.4635 60.7266 18.2031C60.9349 18.2552 61.1302 18.2812 61.3125 18.2812C61.7292 18.2812 62.0547 17.9167 62.2891 17.1875C62.1328 16.9271 62.0156 16.6797 61.9375 16.4453C61.8854 16.2109 61.7812 15.9505 61.625 15.6641C61.4688 15.3516 61.1302 15.1953 60.6094 15.1953C60.1146 15.1953 59.7109 15.3255 59.3984 15.5859C59.0859 15.8203 58.8906 16.0807 58.8125 16.3672C58.5781 16.4714 58.3698 16.6406 58.1875 16.875C58.0052 17.0833 57.7708 17.2786 57.4844 17.4609C57.1979 17.6432 57.0547 17.7604 57.0547 17.8125C57.0547 17.8385 57.0417 17.8646 57.0156 17.8906C57.0156 17.9167 56.9766 17.9427 56.8984 17.9688C56.8464 17.9948 56.7422 18.0469 56.5859 18.125C56.5339 18.2031 56.4948 18.2943 56.4688 18.3984C56.4427 18.4766 56.4036 18.5677 56.3516 18.6719C56.2214 18.6979 56.1042 18.763 56 18.8672C55.9219 18.9453 55.8177 18.9974 55.6875 19.0234L55.7266 19.375C55.7266 19.7135 55.4922 20.1172 55.0234 20.5859L55.1797 21.0938V21.1328C55.0755 21.2891 54.9974 21.4714 54.9453 21.6797C54.9193 21.888 54.8281 22.0573 54.6719 22.1875C54.5417 22.8385 54.4766 23.5938 54.4766 24.4531L54.5156 27.5391C54.5156 27.6693 54.5286 27.8776 54.5547 28.1641C54.5807 28.4245 54.6068 28.8151 54.6328 29.3359C54.6849 29.8568 54.763 30.2083 54.8672 30.3906L54.8281 30.5469C54.8542 30.599 54.8672 30.7552 54.8672 31.0156C54.8672 31.25 54.9062 31.5104 54.9844 31.7969C55.0885 32.0573 55.1016 32.3438 55.0234 32.6562C55.1016 32.8646 55.3099 32.9688 55.6484 32.9688C55.987 32.9688 56.2214 32.9167 56.3516 32.8125H56.3906C56.4948 32.8125 56.5339 32.7734 56.5078 32.6953C56.5078 32.6172 56.5339 32.5391 56.5859 32.4609C56.6901 32.4089 56.8203 32.3828 56.9766 32.3828C57.1589 32.3828 57.3021 32.487 57.4062 32.6953C57.5104 32.9036 57.5625 33.099 57.5625 33.2812C57.5625 33.4375 57.5495 33.5547 57.5234 33.6328C57.2891 33.8151 57.0286 33.8932 56.7422 33.8672C56.6641 33.9193 56.5729 33.9974 56.4688 34.1016C56.3906 34.1797 56.2734 34.2578 56.1172 34.3359C55.9609 34.4141 55.6484 34.4531 55.1797 34.4531C54.7109 34.4271 54.3724 34.4531 54.1641 34.5312C53.9818 34.5833 53.8646 34.6224 53.8125 34.6484C53.7865 34.6745 53.6953 34.7135 53.5391 34.7656C53.4089 34.7917 53.2266 34.8047 52.9922 34.8047C52.7578 34.8047 52.5495 34.8828 52.3672 35.0391H52.2891C52.2109 35.0391 52.1589 35.026 52.1328 35C52.1068 34.9479 52.0677 34.9089 52.0156 34.8828C51.7552 34.9349 51.5469 34.9609 51.3906 34.9609C51.2344 34.9609 51.1172 34.9349 51.0391 34.8828C51.0911 34.1797 51.638 33.7109 52.6797 33.4766C52.6797 33.3464 52.7318 33.2682 52.8359 33.2422V33.1641C52.8359 32.8776 52.7839 32.5911 52.6797 32.3047C52.5755 32.0182 52.5234 31.7188 52.5234 31.4062L52.6016 30.8984L52.3672 29.6484L52.4453 28.9453L52.2109 26.6797L52.2891 25.0781C52.2891 24.9219 52.2891 24.7656 52.2891 24.6094L52.0547 23.5156L52.1328 22.8516L52.0547 21.6016L52.1328 20.6641L52.0156 19.2969C51.9896 18.9844 51.9766 18.6719 51.9766 18.3594C52.0026 18.0469 52.0156 17.7344 52.0156 17.4219L51.8984 16.6797C51.8984 16.3672 51.8724 16.0026 51.8203 15.5859C51.6641 15.638 51.4818 15.651 51.2734 15.625C51.0911 15.5729 50.9479 15.651 50.8438 15.8594C50.7396 15.7812 50.6745 15.7422 50.6484 15.7422L50.0625 15.9766C50.0365 15.8464 49.9583 15.7943 49.8281 15.8203C49.724 15.8464 49.6328 15.8594 49.5547 15.8594H49.5156C49.4635 15.625 49.4375 15.4688 49.4375 15.3906C49.4375 14.974 49.6458 14.7656 50.0625 14.7656L50.5312 14.6484C51.3646 14.4141 51.9635 14.2318 52.3281 14.1016C52.7188 13.9714 52.9661 13.9193 53.0703 13.9453C53.1745 13.9714 53.2786 14.0625 53.3828 14.2188C53.487 14.375 53.5651 14.5443 53.6172 14.7266C53.6693 14.9089 53.6953 15.1042 53.6953 15.3125C53.7214 15.4948 53.7474 15.6771 53.7734 15.8594L53.9297 16.5234ZM69.1641 16.5234L69.0469 17.1094C69.0469 17.3958 69.2031 17.6172 69.5156 17.7734C69.5938 17.7474 69.724 17.6562 69.9062 17.5C70.0885 17.3177 70.375 17.0703 70.7656 16.7578C71.1562 16.4193 71.3776 16.1589 71.4297 15.9766C71.638 15.8464 71.8854 15.6641 72.1719 15.4297C72.4583 15.1693 72.6276 15 72.6797 14.9219H72.8359C73.3307 14.4271 73.9297 14.0885 74.6328 13.9062C75.362 13.6979 75.8438 13.5938 76.0781 13.5938C76.8333 13.5938 77.4583 13.8802 77.9531 14.4531C78.0573 14.6094 78.1615 14.7786 78.2656 14.9609C78.3958 15.1172 78.5651 15.2995 78.7734 15.5078C78.9297 15.612 79.0339 15.8594 79.0859 16.25C79.1641 16.6146 79.2552 16.875 79.3594 17.0312C79.3073 17.1354 79.2292 17.2917 79.125 17.5C79.0469 17.6823 78.9427 17.8776 78.8125 18.0859C78.7083 18.2682 78.6042 18.4505 78.5 18.6328C78.4219 18.7891 78.3438 18.8932 78.2656 18.9453C78.2135 18.9974 78.0703 19.1016 77.8359 19.2578C77.6016 19.388 77.4453 19.5312 77.3672 19.6875C77.3411 19.7135 77.2109 19.7526 76.9766 19.8047C76.7682 19.8568 76.638 19.9089 76.5859 19.9609H76.5078C76.4297 19.987 76.3776 19.9609 76.3516 19.8828C76.3516 19.8047 76.3255 19.7396 76.2734 19.6875H76.1172C75.9089 19.6875 75.7656 19.6354 75.6875 19.5312L75.3359 19.2188C75.4922 18.8021 75.7005 18.4635 75.9609 18.2031C76.1693 18.2552 76.3646 18.2812 76.5469 18.2812C76.9635 18.2812 77.2891 17.9167 77.5234 17.1875C77.3672 16.9271 77.25 16.6797 77.1719 16.4453C77.1198 16.2109 77.0156 15.9505 76.8594 15.6641C76.7031 15.3516 76.3646 15.1953 75.8438 15.1953C75.349 15.1953 74.9453 15.3255 74.6328 15.5859C74.3203 15.8203 74.125 16.0807 74.0469 16.3672C73.8125 16.4714 73.6042 16.6406 73.4219 16.875C73.2396 17.0833 73.0052 17.2786 72.7188 17.4609C72.4323 17.6432 72.2891 17.7604 72.2891 17.8125C72.2891 17.8385 72.276 17.8646 72.25 17.8906C72.25 17.9167 72.2109 17.9427 72.1328 17.9688C72.0807 17.9948 71.9766 18.0469 71.8203 18.125C71.7682 18.2031 71.7292 18.2943 71.7031 18.3984C71.6771 18.4766 71.638 18.5677 71.5859 18.6719C71.4557 18.6979 71.3385 18.763 71.2344 18.8672C71.1562 18.9453 71.0521 18.9974 70.9219 19.0234L70.9609 19.375C70.9609 19.7135 70.7266 20.1172 70.2578 20.5859L70.4141 21.0938V21.1328C70.3099 21.2891 70.2318 21.4714 70.1797 21.6797C70.1536 21.888 70.0625 22.0573 69.9062 22.1875C69.776 22.8385 69.7109 23.5938 69.7109 24.4531L69.75 27.5391C69.75 27.6693 69.763 27.8776 69.7891 28.1641C69.8151 28.4245 69.8411 28.8151 69.8672 29.3359C69.9193 29.8568 69.9974 30.2083 70.1016 30.3906L70.0625 30.5469C70.0885 30.599 70.1016 30.7552 70.1016 31.0156C70.1016 31.25 70.1406 31.5104 70.2188 31.7969C70.3229 32.0573 70.3359 32.3438 70.2578 32.6562C70.3359 32.8646 70.5443 32.9688 70.8828 32.9688C71.2214 32.9688 71.4557 32.9167 71.5859 32.8125H71.625C71.7292 32.8125 71.7682 32.7734 71.7422 32.6953C71.7422 32.6172 71.7682 32.5391 71.8203 32.4609C71.9245 32.4089 72.0547 32.3828 72.2109 32.3828C72.3932 32.3828 72.5365 32.487 72.6406 32.6953C72.7448 32.9036 72.7969 33.099 72.7969 33.2812C72.7969 33.4375 72.7839 33.5547 72.7578 33.6328C72.5234 33.8151 72.263 33.8932 71.9766 33.8672C71.8984 33.9193 71.8073 33.9974 71.7031 34.1016C71.625 34.1797 71.5078 34.2578 71.3516 34.3359C71.1953 34.4141 70.8828 34.4531 70.4141 34.4531C69.9453 34.4271 69.6068 34.4531 69.3984 34.5312C69.2161 34.5833 69.099 34.6224 69.0469 34.6484C69.0208 34.6745 68.9297 34.7135 68.7734 34.7656C68.6432 34.7917 68.4609 34.8047 68.2266 34.8047C67.9922 34.8047 67.7839 34.8828 67.6016 35.0391H67.5234C67.4453 35.0391 67.3932 35.026 67.3672 35C67.3411 34.9479 67.3021 34.9089 67.25 34.8828C66.9896 34.9349 66.7812 34.9609 66.625 34.9609C66.4688 34.9609 66.3516 34.9349 66.2734 34.8828C66.3255 34.1797 66.8724 33.7109 67.9141 33.4766C67.9141 33.3464 67.9661 33.2682 68.0703 33.2422V33.1641C68.0703 32.8776 68.0182 32.5911 67.9141 32.3047C67.8099 32.0182 67.7578 31.7188 67.7578 31.4062L67.8359 30.8984L67.6016 29.6484L67.6797 28.9453L67.4453 26.6797L67.5234 25.0781C67.5234 24.9219 67.5234 24.7656 67.5234 24.6094L67.2891 23.5156L67.3672 22.8516L67.2891 21.6016L67.3672 20.6641L67.25 19.2969C67.224 18.9844 67.2109 18.6719 67.2109 18.3594C67.237 18.0469 67.25 17.7344 67.25 17.4219L67.1328 16.6797C67.1328 16.3672 67.1068 16.0026 67.0547 15.5859C66.8984 15.638 66.7161 15.651 66.5078 15.625C66.3255 15.5729 66.1823 15.651 66.0781 15.8594C65.974 15.7812 65.9089 15.7422 65.8828 15.7422L65.2969 15.9766C65.2708 15.8464 65.1927 15.7943 65.0625 15.8203C64.9583 15.8464 64.8672 15.8594 64.7891 15.8594H64.75C64.6979 15.625 64.6719 15.4688 64.6719 15.3906C64.6719 14.974 64.8802 14.7656 65.2969 14.7656L65.7656 14.6484C66.599 14.4141 67.1979 14.2318 67.5625 14.1016C67.9531 13.9714 68.2005 13.9193 68.3047 13.9453C68.4089 13.9714 68.513 14.0625 68.6172 14.2188C68.7214 14.375 68.7995 14.5443 68.8516 14.7266C68.9036 14.9089 68.9297 15.1042 68.9297 15.3125C68.9557 15.4948 68.9818 15.6771 69.0078 15.8594L69.1641 16.5234ZM85.2969 18.5938C85.0885 19.2188 84.8021 19.6354 84.4375 19.8438C84.4635 20.1302 84.5807 20.3906 84.7891 20.625C84.9974 20.8594 85.1406 21.0677 85.2188 21.25C85.3229 21.4323 85.388 21.5625 85.4141 21.6406C85.4401 21.7188 85.5052 21.862 85.6094 22.0703C85.7396 22.2786 85.8958 22.5 86.0781 22.7344C86.2604 22.9688 86.4167 23.2031 86.5469 23.4375C86.7031 23.6719 86.8464 23.8932 86.9766 24.1016L87.2891 24.5312C87.3932 24.6615 87.4844 24.8047 87.5625 24.9609C87.6406 25.1172 87.7318 25.2734 87.8359 25.4297L87.9531 25.5078C88.1094 25.8203 88.2656 26.1198 88.4219 26.4062C88.6042 26.6927 88.7604 26.9792 88.8906 27.2656L89.0469 27.3438C89.151 27.6562 89.2812 27.9427 89.4375 28.2031L89.5938 28.2812C89.75 28.6719 89.9323 28.8672 90.1406 28.8672C90.349 28.8672 90.5052 28.6719 90.6094 28.2812C90.7917 27.4219 90.9349 26.9531 91.0391 26.875C91.0911 26.7708 91.1172 26.6797 91.1172 26.6016C91.1172 26.4974 91.1432 26.3932 91.1953 26.2891L91.4297 25.8594L91.625 25.2734C91.651 25.1953 91.6771 25.1302 91.7031 25.0781C91.7552 25 91.7943 24.9089 91.8203 24.8047C91.8724 24.7005 91.8984 24.5703 91.8984 24.4141C91.8984 24.2318 91.9375 24.0365 92.0156 23.8281C92.0938 23.6198 92.1849 23.3594 92.2891 23.0469C92.3932 22.7344 92.5104 22.4349 92.6406 22.1484C92.7969 21.862 92.9271 21.5885 93.0312 21.3281C93.1615 21.0417 93.2656 20.8073 93.3438 20.625C93.4479 20.4427 93.513 20.3255 93.5391 20.2734C93.5911 20.2214 93.6302 20.1693 93.6562 20.1172C93.7083 20.0651 93.7214 20.013 93.6953 19.9609C93.6953 19.8828 93.7083 19.8047 93.7344 19.7266C93.7865 19.6484 93.8646 19.5833 93.9688 19.5312C94.0729 19.4531 94.1641 19.3099 94.2422 19.1016C94.3464 18.8932 94.4375 18.6068 94.5156 18.2422C94.6198 17.8776 94.7891 17.6042 95.0234 17.4219C95.2839 17.2396 95.5443 17.1484 95.8047 17.1484C96.0651 17.1484 96.2474 17.2135 96.3516 17.3438C96.4557 17.474 96.5599 17.5651 96.6641 17.6172V17.7344C96.6641 18.2292 96.5339 18.5156 96.2734 18.5938C96.0911 19.2708 95.8958 19.8307 95.6875 20.2734C95.5052 20.6901 95.375 20.9115 95.2969 20.9375C95.1406 21.5885 94.8542 22.1745 94.4375 22.6953C94.3854 22.8255 94.3594 22.9688 94.3594 23.125C94.3594 23.4635 94.2422 23.776 94.0078 24.0625C93.7734 24.349 93.6562 24.6094 93.6562 24.8438V25.3125C93.6562 25.5729 93.5391 25.8724 93.3047 26.2109C93.3047 26.4714 93.2656 26.7188 93.1875 26.9531C92.7969 27.9688 92.6146 28.6849 92.6406 29.1016C92.5104 29.1536 92.3672 29.4401 92.2109 29.9609C92.0547 30.4818 91.9766 30.7943 91.9766 30.8984L92.0156 31.6016C92.0156 31.862 91.9505 32.0443 91.8203 32.1484C91.6901 32.2266 91.5859 32.3177 91.5078 32.4219C91.4557 32.526 91.4036 32.6302 91.3516 32.7344C91.2995 32.8385 91.2214 32.9167 91.1172 32.9688C91.1693 33.0208 91.1953 33.151 91.1953 33.3594C91.1953 33.5417 90.9219 34.1667 90.375 35.2344C89.8542 36.3021 89.5677 36.875 89.5156 36.9531V37.5781C89.4375 37.6823 89.3594 37.7865 89.2812 37.8906C89.2292 37.9948 89.151 38.099 89.0469 38.2031C88.9427 38.3073 88.8776 38.4245 88.8516 38.5547C88.8255 38.6849 88.7214 38.737 88.5391 38.7109C88.4609 39.0495 88.3438 39.362 88.1875 39.6484C88.0312 39.9609 87.9271 40.2083 87.875 40.3906C87.849 40.599 87.7969 40.7161 87.7188 40.7422C87.6406 40.7682 87.5755 40.8073 87.5234 40.8594C87.4714 40.9375 87.4323 41.0026 87.4062 41.0547C87.4062 41.1328 87.3802 41.1589 87.3281 41.1328H87.2109V41.1719L87.2891 41.5234V41.6406C86.9245 41.9271 86.6771 42.3698 86.5469 42.9688C86.3385 43.0729 86.2083 43.1901 86.1562 43.3203C86.1042 43.4505 86.013 43.5807 85.8828 43.7109C85.7526 43.9193 85.5964 44.1016 85.4141 44.2578C85.2318 44.4141 85.0885 44.6224 84.9844 44.8828C84.8542 44.9089 84.737 44.9219 84.6328 44.9219C84.5286 44.9479 84.4115 44.987 84.2812 45.0391C84.125 45.2474 83.9297 45.3906 83.6953 45.4688C83.4609 45.5729 83.2656 45.7682 83.1094 46.0547C82.875 46.1068 82.5885 46.2109 82.25 46.3672C81.9375 46.5495 81.638 46.6667 81.3516 46.7188C81.2734 46.7708 81.1953 46.8229 81.1172 46.875C81.0651 46.9271 80.9609 46.9792 80.8047 47.0312C80.6484 47.1094 80.3099 47.1484 79.7891 47.1484C79.2682 47.1484 78.8516 47.1094 78.5391 47.0312C78.3047 47.1094 78.0443 47.1484 77.7578 47.1484C77.0286 47.1484 76.6641 46.9792 76.6641 46.6406C76.6641 46.5625 76.612 46.5104 76.5078 46.4844C76.4036 46.4844 76.3125 46.4323 76.2344 46.3281V46.1719H76.0781C75.8958 46.0156 75.7917 45.9245 75.7656 45.8984C75.7656 45.7422 75.7266 45.638 75.6484 45.5859C75.5703 45.5599 75.5573 45.4688 75.6094 45.3125C75.3229 45.1823 75.1276 44.8438 75.0234 44.2969C74.9193 43.75 74.8672 43.4245 74.8672 43.3203L75.0234 42.8125L74.9453 42.3828C74.9453 42.2526 75.0104 42.0443 75.1406 41.7578C75.2708 41.4714 75.349 41.237 75.375 41.0547C75.6875 40.7943 75.8698 40.5339 75.9219 40.2734C76.1302 40.1953 76.2995 40.0651 76.4297 39.8828C76.5339 39.7266 76.651 39.5703 76.7812 39.4141C77.0677 39.3359 77.3672 39.2448 77.6797 39.1406C77.9661 39.0625 78.3177 39.0234 78.7344 39.0234C79.151 39.0234 79.5026 39.1406 79.7891 39.375C80.0755 39.6354 80.2969 39.8438 80.4531 40C80.6094 40.1823 80.7917 40.3646 81 40.5469C80.9479 40.9635 80.9219 41.3021 80.9219 41.5625C80.7917 41.6146 80.6745 41.6797 80.5703 41.7578C80.4661 41.8359 80.3229 41.875 80.1406 41.875C79.9583 41.875 79.8281 41.7969 79.75 41.6406C79.6979 41.4844 79.5677 41.3802 79.3594 41.3281L79.0859 40.625C78.9036 40.599 78.7344 40.5599 78.5781 40.5078C78.4219 40.4557 78.2135 40.4297 77.9531 40.4297C77.6927 40.4297 77.4974 40.5469 77.3672 40.7812C77.237 41.0156 77.0677 41.224 76.8594 41.4062L76.7812 41.5625C76.7031 41.6146 76.612 41.6667 76.5078 41.7188C76.3776 41.7708 76.2995 41.849 76.2734 41.9531C76.3255 42.0573 76.3516 42.1875 76.3516 42.3438C76.3516 42.5 76.2995 42.6693 76.1953 42.8516C76.0651 43.0339 76 43.2292 76 43.4375C76 43.6458 76.0651 43.8542 76.1953 44.0625C76.2995 44.2969 76.3776 44.5182 76.4297 44.7266C76.6641 44.8828 76.8594 45.0651 77.0156 45.2734C77.1458 45.4818 77.3151 45.651 77.5234 45.7812C77.7318 45.8333 77.9271 45.8333 78.1094 45.7812C78.2917 45.7552 78.487 45.7422 78.6953 45.7422L79.1641 45.8984L79.2031 45.7812H79.75C80.0625 45.7812 80.4531 45.7031 80.9219 45.5469C81.4167 45.4167 81.7812 45.2865 82.0156 45.1562L82.3672 44.8828C82.5495 44.7526 82.7318 44.6224 82.9141 44.4922C83.1224 44.388 83.2917 44.2578 83.4219 44.1016C83.5781 43.9714 83.7083 43.8151 83.8125 43.6328C83.9427 43.4766 84.099 43.3464 84.2812 43.2422C84.4375 42.9297 84.6328 42.5781 84.8672 42.1875C85.7786 40.7031 86.2995 39.5703 86.4297 38.7891C86.612 38.6589 86.8203 38.3073 87.0547 37.7344C87.2891 37.1875 87.4714 36.875 87.6016 36.7969C87.6797 36.3802 87.7969 36.1068 87.9531 35.9766C87.9792 35.638 88.0703 35.3255 88.2266 35.0391C88.4089 34.7526 88.526 34.4792 88.5781 34.2188C88.6302 33.9323 88.6953 33.6719 88.7734 33.4375C89.0078 33.125 89.125 32.8125 89.125 32.5C89.125 32.1615 89.0729 31.9141 88.9688 31.7578C88.8646 31.6016 88.8385 31.4193 88.8906 31.2109C88.8125 31.1849 88.7474 31.1458 88.6953 31.0938C88.6432 31.0156 88.5651 30.9505 88.4609 30.8984C88.3568 30.638 88.2266 30.4297 88.0703 30.2734C87.9401 30.0911 87.8099 29.9089 87.6797 29.7266C87.5495 29.5182 87.4583 29.3229 87.4062 29.1406C87.3802 28.9323 87.237 28.8021 86.9766 28.75L87.0156 28.6719C87.0156 28.5677 86.9896 28.5026 86.9375 28.4766C86.8854 28.4245 86.8724 28.3333 86.8984 28.2031C86.8724 28.099 86.7812 28.0469 86.625 28.0469C86.625 27.8906 86.5729 27.7604 86.4688 27.6562C86.3646 27.526 86.2865 27.4219 86.2344 27.3438C86.1823 27.2396 86.1562 27.1745 86.1562 27.1484C86.1823 27.1224 86.1693 27.0833 86.1172 27.0312L85.9609 26.9531C85.9089 26.901 85.8828 26.849 85.8828 26.7969C85.8828 26.7188 85.8438 26.6146 85.7656 26.4844C85.6875 26.3281 85.5703 26.1458 85.4141 25.9375C85.2839 25.7031 85.1667 25.4557 85.0625 25.1953C84.8542 24.9609 84.6589 24.7396 84.4766 24.5312C84.2943 24.3229 84.151 24.0625 84.0469 23.75C83.7865 23.5156 83.5781 23.2422 83.4219 22.9297C83.2656 22.5911 83.0703 22.2917 82.8359 22.0312V21.9531C82.8359 21.8229 82.7708 21.6406 82.6406 21.4062C82.5104 21.1458 82.3932 20.9766 82.2891 20.8984C82.2109 20.8203 82.1328 20.7422 82.0547 20.6641C82.0026 20.5599 81.9635 20.4557 81.9375 20.3516C81.9115 20.2474 81.8594 20.1562 81.7812 20.0781L80.5312 20.1562C79.9583 20.1562 79.6719 20.0651 79.6719 19.8828L79.75 19.6094C79.75 19.5573 79.724 19.5312 79.6719 19.5312L79.5156 19.2578C79.5156 19.1797 79.5417 19.1406 79.5938 19.1406C79.6198 18.9323 79.7891 18.8281 80.1016 18.8281C80.4401 18.8021 80.7396 18.75 81 18.6719C81.2604 18.5677 81.4688 18.5417 81.625 18.5938C81.7552 18.5417 81.8854 18.4635 82.0156 18.3594C82.1458 18.2552 82.2891 18.2031 82.4453 18.2031L83.1094 18.2812L83.7344 18.125L84.2812 18.2031L84.5547 18.125C84.8151 18.125 85.0625 18.2812 85.2969 18.5938ZM115.375 8.67188C114.854 8.67188 114.594 8.78906 114.594 9.02344C114.594 9.17969 114.542 9.28385 114.438 9.33594L113.852 9.64844C113.617 10.1693 113.357 10.4948 113.07 10.625L112.836 11.1719C112.732 11.1979 112.667 11.263 112.641 11.3672C112.615 11.4453 112.549 11.5104 112.445 11.5625C112.445 11.8229 112.38 12.0312 112.25 12.1875C112.12 12.3177 112.068 12.5391 112.094 12.8516C111.964 12.9036 111.885 12.9818 111.859 13.0859C111.833 13.1901 111.742 13.2682 111.586 13.3203C111.638 13.3464 111.664 13.4245 111.664 13.5547C111.664 13.6849 111.573 13.8542 111.391 14.0625C111.391 14.4271 111.26 15 111 15.7812C110.74 16.5625 110.583 16.9922 110.531 17.0703C110.583 17.0964 110.609 17.1615 110.609 17.2656L110.531 17.7734L110.648 18.5156L110.609 19.2578C110.609 19.4661 110.609 19.6745 110.609 19.8828C110.609 20.0911 110.622 20.2734 110.648 20.4297C110.701 20.5599 110.74 20.6771 110.766 20.7812C110.818 20.8594 110.844 20.9115 110.844 20.9375V21.6406C110.844 21.9792 110.909 22.3047 111.039 22.6172C111.195 22.9297 111.273 23.2161 111.273 23.4766C111.299 23.737 111.378 23.8932 111.508 23.9453C111.664 23.9714 111.742 24.0755 111.742 24.2578L111.586 24.5312V24.6094C112.289 26.3802 113.227 27.8125 114.398 28.9062C114.685 29.1927 114.945 29.5052 115.18 29.8438C115.336 29.8438 115.635 29.987 116.078 30.2734L116.43 30.5859C116.664 30.7161 116.872 30.8333 117.055 30.9375C117.237 31.0156 117.393 31.1589 117.523 31.3672C117.732 31.3932 117.914 31.4714 118.07 31.6016C118.253 31.7057 118.396 31.7578 118.5 31.7578L118.852 31.6797H118.93C118.982 31.7839 119.19 31.888 119.555 31.9922C119.945 32.0964 120.167 32.1484 120.219 32.1484L120.609 32.1094C120.818 32.1094 121.013 32.1484 121.195 32.2266C121.404 32.2786 121.625 32.2917 121.859 32.2656H122.016C122.068 32.2135 122.133 32.1875 122.211 32.1875L122.445 32.2656L123.148 32.1094L124.398 32.1875C124.815 32.1875 125.115 32.1354 125.297 32.0312C125.479 31.9271 125.557 31.8359 125.531 31.7578C126.026 31.7578 126.352 31.6927 126.508 31.5625C126.664 31.4323 126.768 31.3411 126.82 31.2891C126.898 31.237 126.977 31.1979 127.055 31.1719C127.159 31.1458 127.237 31.1198 127.289 31.0938C127.341 31.0417 127.367 31.0026 127.367 30.9766C127.367 30.9245 127.393 30.8724 127.445 30.8203C127.497 30.7682 127.536 30.7552 127.562 30.7812C127.589 30.7812 127.641 30.7552 127.719 30.7031C127.901 30.599 128.201 30.3385 128.617 29.9219C129.138 29.5052 129.438 29.2969 129.516 29.2969C129.568 29.1406 129.633 29.0104 129.711 28.9062C129.789 28.8021 129.841 28.6719 129.867 28.5156C130.206 28.3854 130.44 28.1641 130.57 27.8516C130.701 27.5391 130.909 27.3177 131.195 27.1875C131.768 27.4219 132.055 27.7214 132.055 28.0859C132.055 28.2943 131.951 28.4635 131.742 28.5938C131.56 28.6979 131.417 28.8151 131.312 28.9453C131.208 29.0495 131.143 29.1667 131.117 29.2969C131.091 29.401 131.039 29.5052 130.961 29.6094C130.622 29.7396 130.453 29.9089 130.453 30.1172H130.375C130.297 30.1172 130.232 30.1432 130.18 30.1953C130.128 30.2214 130.062 30.2474 129.984 30.2734C129.906 30.4036 129.815 30.5339 129.711 30.6641C129.633 30.7943 129.568 30.9245 129.516 31.0547C129.385 31.1068 129.268 31.1849 129.164 31.2891C129.06 31.3672 128.943 31.4193 128.812 31.4453C128.708 31.6536 128.552 31.8359 128.344 31.9922C128.161 32.1224 128.005 32.3047 127.875 32.5391C127.693 32.5391 127.549 32.5911 127.445 32.6953C127.367 32.7734 127.237 32.8125 127.055 32.8125C126.898 32.8125 126.794 32.8516 126.742 32.9297C126.716 33.0078 126.586 33.0208 126.352 32.9688C126.299 33.0208 126.104 33.2031 125.766 33.5156L124.906 33.6719L124.359 33.5156C123.5 33.5156 122.94 33.5677 122.68 33.6719L122.094 33.9062C121.859 33.9844 121.521 34.0234 121.078 34.0234L119.984 33.8672C119.828 33.8672 119.646 33.9193 119.438 34.0234C119.333 33.9453 119.216 33.9062 119.086 33.9062H118.656C118.474 33.9062 118.344 33.8672 118.266 33.7891C118.214 33.7109 118.057 33.6719 117.797 33.6719H117.758L117.602 33.5156C116.378 33.0469 115.453 32.7474 114.828 32.6172C114.672 32.2786 114.346 32.0443 113.852 31.9141C113.852 31.8359 113.799 31.7839 113.695 31.7578C113.591 31.7318 113.539 31.6797 113.539 31.6016C113.539 31.4974 113.513 31.4193 113.461 31.3672C112.94 31.2109 112.484 30.7943 112.094 30.1172C111.885 30.0911 111.677 30.026 111.469 29.9219C111.417 29.8438 111.326 29.7526 111.195 29.6484C111.091 29.5182 110.974 29.375 110.844 29.2188C110.74 29.0625 110.635 28.9323 110.531 28.8281C110.453 28.724 110.414 28.6458 110.414 28.5938C110.232 28.5156 110.036 28.4115 109.828 28.2812C109.411 27.526 109.151 26.901 109.047 26.4062C108.943 25.9115 108.852 25.599 108.773 25.4688C108.721 25.3125 108.643 25.1693 108.539 25.0391C108.461 24.8828 108.383 24.7526 108.305 24.6484C108.253 24.5182 108.24 24.401 108.266 24.2969C108.292 24.1927 108.279 24.0885 108.227 23.9844L108.07 23.5156C108.044 23.4375 108.031 23.3594 108.031 23.2812C108.057 23.1771 108.07 23.0859 108.07 23.0078L107.836 21.4062L107.914 20V19.2969C107.914 18.8542 107.992 18.4115 108.148 17.9688C108.305 17.5 108.448 17.0703 108.578 16.6797C108.552 16.6276 108.539 16.5625 108.539 16.4844C108.539 16.4062 108.565 16.263 108.617 16.0547C108.695 15.8464 108.773 15.638 108.852 15.4297C108.956 15.1953 109.047 14.987 109.125 14.8047C109.203 14.5964 109.268 14.4531 109.32 14.375C109.398 14.2708 109.49 14.1536 109.594 14.0234C109.698 13.8672 109.802 13.6458 109.906 13.3594C110.01 13.0469 110.154 12.7734 110.336 12.5391C110.518 12.3047 110.609 12.0703 110.609 11.8359C111.156 11.4974 111.482 11.0417 111.586 10.4688C111.768 10.4167 112.029 10.1953 112.367 9.80469C112.732 9.41406 112.914 9.19271 112.914 9.14062C112.992 9.11458 113.018 9.07552 112.992 9.02344C112.992 8.97135 113.018 8.91927 113.07 8.86719L113.227 8.78906C113.357 8.55469 113.539 8.34635 113.773 8.16406C114.034 7.98177 114.164 7.83854 114.164 7.73438C114.372 7.68229 114.568 7.57812 114.75 7.42188C114.932 7.23958 115.102 7.10938 115.258 7.03125C115.414 6.95312 115.544 6.88802 115.648 6.83594C115.779 6.78385 115.87 6.69271 115.922 6.5625L116.039 6.60156C116.195 6.60156 116.299 6.54948 116.352 6.44531C116.404 6.3151 116.586 6.25 116.898 6.25C116.924 6.25 116.964 6.19792 117.016 6.09375C117.224 6.04167 117.419 6.0026 117.602 5.97656C117.784 5.95052 117.966 5.83333 118.148 5.625C118.591 5.625 119.021 5.49479 119.438 5.23438C119.49 5.26042 119.581 5.27344 119.711 5.27344C119.841 5.27344 119.945 5.2474 120.023 5.19531C120.128 5.14323 120.258 5.10417 120.414 5.07812C120.596 5.05208 120.818 5.05208 121.078 5.07812C121.339 5.07812 121.547 5.03906 121.703 4.96094C121.885 4.88281 121.977 4.83073 121.977 4.80469C122.003 4.77865 122.107 4.76562 122.289 4.76562L123.305 4.96094L124.164 4.84375L124.711 5L125.141 4.96094V5C125.141 5.07812 125.167 5.11719 125.219 5.11719C125.297 5.09115 125.388 5.07812 125.492 5.07812C125.596 5.07812 125.688 5.15625 125.766 5.3125H125.961C126.404 5.3125 127.094 5.65104 128.031 6.32812C128.344 6.53646 128.552 6.69271 128.656 6.79688C128.786 6.90104 129.047 6.99219 129.438 7.07031C129.49 6.91406 129.542 6.74479 129.594 6.5625C129.75 5.67708 130.089 5.23438 130.609 5.23438C130.792 5.23438 130.948 5.3125 131.078 5.46875C131.208 5.625 131.273 5.78125 131.273 5.9375C131.273 6.09375 131.247 6.25 131.195 6.40625C131.221 6.45833 131.234 6.5625 131.234 6.71875C131.234 6.875 131.156 7.22656 131 7.77344C130.87 8.29427 130.805 8.97135 130.805 9.80469L130.883 10.1953C130.883 10.7422 130.987 11.1198 131.195 11.3281C131.065 11.4844 130.922 11.7578 130.766 12.1484C130.661 12.2005 130.557 12.2526 130.453 12.3047C130.375 12.3568 130.245 12.3828 130.062 12.3828C129.906 12.3828 129.75 12.2917 129.594 12.1094C129.359 11.849 129.242 11.6146 129.242 11.4062V11.1328C129.242 10.8464 129.177 10.612 129.047 10.4297C128.943 10.2474 128.917 10.0781 128.969 9.92188C128.812 9.81771 128.669 9.70052 128.539 9.57031V9.33594C128.539 8.73698 128.188 8.25521 127.484 7.89062C127.354 7.83854 127.289 7.76042 127.289 7.65625L126.703 7.46094C126.625 7.33073 126.508 7.2526 126.352 7.22656C126.195 7.17448 126.091 7.07031 126.039 6.91406H125.961L125.57 7.03125L124.984 6.64062C124.906 6.66667 124.789 6.67969 124.633 6.67969C124.477 6.67969 124.333 6.61458 124.203 6.48438C124.203 6.53646 124.164 6.5625 124.086 6.5625C124.034 6.5625 124.008 6.53646 124.008 6.48438L123.305 6.64062C123.07 6.64062 122.875 6.58854 122.719 6.48438C122.589 6.38021 122.367 6.32812 122.055 6.32812C121.742 6.32812 121.482 6.43229 121.273 6.64062C120.466 6.64062 119.854 6.78385 119.438 7.07031H119.281C118.943 7.07031 118.669 7.1224 118.461 7.22656C118.279 7.30469 118.148 7.34375 118.07 7.34375C118.018 7.31771 117.953 7.30469 117.875 7.30469C117.823 7.30469 117.771 7.33073 117.719 7.38281C117.667 7.40885 117.458 7.48698 117.094 7.61719C116.755 7.7474 116.26 8.11198 115.609 8.71094C115.583 8.6849 115.505 8.67188 115.375 8.67188ZM138.227 21.9141L137.992 22.4219C138.044 22.6562 138.07 22.8255 138.07 22.9297L137.992 23.8281C138.044 23.8802 138.07 23.9323 138.07 23.9844L137.992 24.1406L138.109 24.6875C138.24 25.2083 138.292 25.7292 138.266 26.25C138.266 26.7708 138.266 27.3047 138.266 27.8516L138.344 28.4375L138.266 28.9062L138.422 29.6875C138.422 29.8177 138.409 29.9219 138.383 30C138.357 30.0781 138.37 30.1693 138.422 30.2734L138.344 30.9375L138.422 31.3672L138.266 31.9531L138.344 32.4219L138.266 32.9297L138.5 33.8281C138.76 33.8281 138.982 33.763 139.164 33.6328C139.346 33.5026 139.594 33.4375 139.906 33.4375C140.219 33.4375 140.375 33.5938 140.375 33.9062C140.375 34.2188 140.232 34.4661 139.945 34.6484C139.659 34.8047 139.424 34.9219 139.242 35C139.06 35.0781 138.891 35.1172 138.734 35.1172C138.604 35.1432 138.448 35.1693 138.266 35.1953C138.083 35.2474 137.966 35.2865 137.914 35.3125C137.862 35.3385 137.706 35.3516 137.445 35.3516C137.211 35.3516 136.885 35.4036 136.469 35.5078C136.052 35.638 135.779 35.7943 135.648 35.9766C135.596 36.0026 135.557 36.0026 135.531 35.9766C135.505 35.9766 135.453 35.9766 135.375 35.9766C135.323 35.9766 135.206 36.0286 135.023 36.1328C134.841 36.263 134.646 36.3151 134.438 36.2891H134.32C134.034 36.1589 133.891 35.7943 133.891 35.1953C133.969 35.2214 134.021 35.1823 134.047 35.0781C134.073 35 134.112 34.9479 134.164 34.9219C134.242 34.8698 134.32 34.8568 134.398 34.8828C134.477 34.8828 134.659 34.8307 134.945 34.7266C135.258 34.5964 135.648 34.4792 136.117 34.375C136.195 34.1667 136.234 33.9583 136.234 33.75C136.234 33.5417 136.208 33.3464 136.156 33.1641C136.104 32.9557 136.091 32.7474 136.117 32.5391V31.1719C136.117 30.5729 136.13 30.2474 136.156 30.1953L136.039 29.8438L136.117 29.6094L135.961 28.9844C135.909 28.5417 135.883 28.0859 135.883 27.6172V26.25C135.883 25.8333 135.844 25.4297 135.766 25.0391C135.688 24.6484 135.622 24.2448 135.57 23.8281V23.0078L135.414 21.8359L135.453 20.5469L135.414 19.4141V18.5938C135.466 18.4375 135.492 18.3203 135.492 18.2422L135.336 17.8516C135.336 17.7995 135.362 17.7214 135.414 17.6172C135.414 17.2266 135.388 16.8229 135.336 16.4062L135.18 15.7812L135.258 15.5469L135.062 12.8125L135.219 11.3672L135.141 10.8594L135.258 10.3906L135.102 8.98438L135.219 7.14844L135.062 5.46875C135.01 4.84375 134.984 4.25781 134.984 3.71094C134.984 3.13802 134.802 2.85156 134.438 2.85156L133.656 2.92969C133.37 2.92969 133.148 2.8125 132.992 2.57812C132.836 2.34375 132.758 2.1875 132.758 2.10938L132.797 1.95312C132.875 1.71875 133.07 1.60156 133.383 1.60156C133.721 1.60156 134.034 1.58854 134.32 1.5625C134.607 1.51042 135.01 1.41927 135.531 1.28906C136.052 1.15885 136.469 1.09375 136.781 1.09375C137.12 1.09375 137.328 1.19792 137.406 1.40625C137.354 1.77083 137.263 2.00521 137.133 2.10938C137.003 2.21354 136.898 2.39583 136.82 2.65625L136.898 3.75L136.781 4.64844L136.938 5.70312C136.938 5.83333 136.964 5.92448 137.016 5.97656C137.094 6.0026 137.133 6.09375 137.133 6.25L137.055 6.99219L137.133 7.22656L137.055 7.38281C137.185 7.79948 137.237 8.28125 137.211 8.82812C137.211 9.34896 137.276 9.79167 137.406 10.1562C137.354 10.2865 137.328 10.7031 137.328 11.4062L137.25 12.6953C137.25 13.0078 137.263 13.3333 137.289 13.6719C137.341 13.9844 137.393 14.375 137.445 14.8438L137.562 16.4844C137.615 17.1094 137.667 17.7474 137.719 18.3984C137.771 18.4245 137.927 18.4375 138.188 18.4375C138.474 18.4375 138.682 18.2682 138.812 17.9297C138.943 17.9297 139.047 17.8776 139.125 17.7734C139.307 17.513 139.438 17.4219 139.516 17.5C139.594 17.5781 139.672 17.5521 139.75 17.4219C139.828 17.2656 139.893 17.1745 139.945 17.1484C140.023 17.1224 140.076 17.1224 140.102 17.1484C140.128 17.1484 140.167 17.1484 140.219 17.1484C140.271 17.1484 140.31 17.1354 140.336 17.1094C140.362 16.9792 140.714 16.849 141.391 16.7188C142.068 16.5885 142.445 16.5234 142.523 16.5234C142.602 16.5234 142.719 16.5365 142.875 16.5625C143.031 16.5885 143.279 16.6276 143.617 16.6797C143.982 16.7318 144.203 16.8359 144.281 16.9922C144.385 17.1484 144.529 17.3307 144.711 17.5391C144.919 17.7474 145.167 18.0078 145.453 18.3203C145.74 18.6068 146 18.9453 146.234 19.3359C146.312 19.388 146.365 19.4661 146.391 19.5703C146.443 19.6484 146.508 19.7135 146.586 19.7656C146.56 19.8177 146.547 19.8958 146.547 20L146.859 21.25C146.859 21.4062 146.885 21.5495 146.938 21.6797C146.99 21.8099 147.016 21.9661 147.016 22.1484C147.042 22.3047 147.068 22.4609 147.094 22.6172L147.25 23.1641C147.302 23.4245 147.328 23.6979 147.328 23.9844V24.7656C147.328 24.8177 147.315 24.8438 147.289 24.8438C147.263 24.8438 147.25 24.8698 147.25 24.9219L147.484 26.0156L147.328 26.9922L147.484 28.3594C147.484 28.8021 147.458 29.2448 147.406 29.6875C147.354 30.1302 147.354 30.5859 147.406 31.0547C147.25 31.3411 147.172 31.6667 147.172 32.0312V32.8125C147.172 32.9688 147.198 33.125 147.25 33.2812C147.406 33.3333 147.602 33.3594 147.836 33.3594L149.398 33.0469C149.451 33.151 149.542 33.2422 149.672 33.3203C149.828 33.3724 149.906 33.4505 149.906 33.5547C149.906 33.8672 149.789 34.0234 149.555 34.0234C149.034 34.0234 148.552 34.2448 148.109 34.6875C148.031 34.6615 147.914 34.6484 147.758 34.6484L146.703 34.8438H146.43C146.273 34.8438 146.182 34.8828 146.156 34.9609C146.156 35.013 146.052 35.0391 145.844 35.0391L144.867 35.1562L144.555 35.1172C144.372 35.1172 144.268 35.1693 144.242 35.2734C144.216 35.4036 144.125 35.4688 143.969 35.4688L143.812 35.4297C143.708 35.2214 143.656 35 143.656 34.7656C143.656 34.5312 143.695 34.362 143.773 34.2578C143.878 34.1536 143.982 34.0755 144.086 34.0234C144.216 33.9714 144.346 33.9193 144.477 33.8672C144.633 33.8151 144.75 33.724 144.828 33.5938L145.023 32.6172C145.049 32.513 145.062 32.3958 145.062 32.2656L144.945 31.2109L145.023 30.4297L144.945 29.7656L145.102 28.9844L145.023 28.2812L145.102 26.7578C145.102 26.3151 145.036 25.8724 144.906 25.4297C144.802 24.987 144.75 24.5312 144.75 24.0625L144.828 23.5156C144.828 23.4896 144.776 23.1641 144.672 22.5391L144.75 22.4219C144.594 22.2396 144.516 22.1354 144.516 22.1094C144.542 22.0573 144.555 21.9531 144.555 21.7969C144.555 21.6146 144.516 21.4453 144.438 21.2891C144.385 21.1328 144.333 20.9635 144.281 20.7812C144.255 20.599 144.229 20.3906 144.203 20.1562C144.151 19.7917 144.047 19.5312 143.891 19.375C143.76 19.1927 143.669 19.0495 143.617 18.9453C143.591 18.8411 143.539 18.737 143.461 18.6328C143.383 18.5286 143.279 18.4505 143.148 18.3984C143.044 18.3203 142.927 18.2161 142.797 18.0859C142.589 18.2161 142.302 18.2812 141.938 18.2812C141.599 18.2552 141.352 18.2422 141.195 18.2422C141.039 18.2422 140.948 18.2682 140.922 18.3203C140.922 18.3724 140.883 18.4505 140.805 18.5547C140.753 18.6328 140.661 18.724 140.531 18.8281C140.427 18.9062 140.336 19.0104 140.258 19.1406C139.763 19.1146 139.424 19.2448 139.242 19.5312C138.93 20.0521 138.682 20.3776 138.5 20.5078C138.422 20.7422 138.318 20.8724 138.188 20.8984C138.083 20.8984 138.057 20.9635 138.109 21.0938L138.07 21.2109L138.227 21.6797C138.227 21.7578 138.227 21.8359 138.227 21.9141ZM154.477 16.5234L154.359 17.1094C154.359 17.3958 154.516 17.6172 154.828 17.7734C154.906 17.7474 155.036 17.6562 155.219 17.5C155.401 17.3177 155.688 17.0703 156.078 16.7578C156.469 16.4193 156.69 16.1589 156.742 15.9766C156.951 15.8464 157.198 15.6641 157.484 15.4297C157.771 15.1693 157.94 15 157.992 14.9219H158.148C158.643 14.4271 159.242 14.0885 159.945 13.9062C160.674 13.6979 161.156 13.5938 161.391 13.5938C162.146 13.5938 162.771 13.8802 163.266 14.4531C163.37 14.6094 163.474 14.7786 163.578 14.9609C163.708 15.1172 163.878 15.2995 164.086 15.5078C164.242 15.612 164.346 15.8594 164.398 16.25C164.477 16.6146 164.568 16.875 164.672 17.0312C164.62 17.1354 164.542 17.2917 164.438 17.5C164.359 17.6823 164.255 17.8776 164.125 18.0859C164.021 18.2682 163.917 18.4505 163.812 18.6328C163.734 18.7891 163.656 18.8932 163.578 18.9453C163.526 18.9974 163.383 19.1016 163.148 19.2578C162.914 19.388 162.758 19.5312 162.68 19.6875C162.654 19.7135 162.523 19.7526 162.289 19.8047C162.081 19.8568 161.951 19.9089 161.898 19.9609H161.82C161.742 19.987 161.69 19.9609 161.664 19.8828C161.664 19.8047 161.638 19.7396 161.586 19.6875H161.43C161.221 19.6875 161.078 19.6354 161 19.5312L160.648 19.2188C160.805 18.8021 161.013 18.4635 161.273 18.2031C161.482 18.2552 161.677 18.2812 161.859 18.2812C162.276 18.2812 162.602 17.9167 162.836 17.1875C162.68 16.9271 162.562 16.6797 162.484 16.4453C162.432 16.2109 162.328 15.9505 162.172 15.6641C162.016 15.3516 161.677 15.1953 161.156 15.1953C160.661 15.1953 160.258 15.3255 159.945 15.5859C159.633 15.8203 159.438 16.0807 159.359 16.3672C159.125 16.4714 158.917 16.6406 158.734 16.875C158.552 17.0833 158.318 17.2786 158.031 17.4609C157.745 17.6432 157.602 17.7604 157.602 17.8125C157.602 17.8385 157.589 17.8646 157.562 17.8906C157.562 17.9167 157.523 17.9427 157.445 17.9688C157.393 17.9948 157.289 18.0469 157.133 18.125C157.081 18.2031 157.042 18.2943 157.016 18.3984C156.99 18.4766 156.951 18.5677 156.898 18.6719C156.768 18.6979 156.651 18.763 156.547 18.8672C156.469 18.9453 156.365 18.9974 156.234 19.0234L156.273 19.375C156.273 19.7135 156.039 20.1172 155.57 20.5859L155.727 21.0938V21.1328C155.622 21.2891 155.544 21.4714 155.492 21.6797C155.466 21.888 155.375 22.0573 155.219 22.1875C155.089 22.8385 155.023 23.5938 155.023 24.4531L155.062 27.5391C155.062 27.6693 155.076 27.8776 155.102 28.1641C155.128 28.4245 155.154 28.8151 155.18 29.3359C155.232 29.8568 155.31 30.2083 155.414 30.3906L155.375 30.5469C155.401 30.599 155.414 30.7552 155.414 31.0156C155.414 31.25 155.453 31.5104 155.531 31.7969C155.635 32.0573 155.648 32.3438 155.57 32.6562C155.648 32.8646 155.857 32.9688 156.195 32.9688C156.534 32.9688 156.768 32.9167 156.898 32.8125H156.938C157.042 32.8125 157.081 32.7734 157.055 32.6953C157.055 32.6172 157.081 32.5391 157.133 32.4609C157.237 32.4089 157.367 32.3828 157.523 32.3828C157.706 32.3828 157.849 32.487 157.953 32.6953C158.057 32.9036 158.109 33.099 158.109 33.2812C158.109 33.4375 158.096 33.5547 158.07 33.6328C157.836 33.8151 157.576 33.8932 157.289 33.8672C157.211 33.9193 157.12 33.9974 157.016 34.1016C156.938 34.1797 156.82 34.2578 156.664 34.3359C156.508 34.4141 156.195 34.4531 155.727 34.4531C155.258 34.4271 154.919 34.4531 154.711 34.5312C154.529 34.5833 154.411 34.6224 154.359 34.6484C154.333 34.6745 154.242 34.7135 154.086 34.7656C153.956 34.7917 153.773 34.8047 153.539 34.8047C153.305 34.8047 153.096 34.8828 152.914 35.0391H152.836C152.758 35.0391 152.706 35.026 152.68 35C152.654 34.9479 152.615 34.9089 152.562 34.8828C152.302 34.9349 152.094 34.9609 151.938 34.9609C151.781 34.9609 151.664 34.9349 151.586 34.8828C151.638 34.1797 152.185 33.7109 153.227 33.4766C153.227 33.3464 153.279 33.2682 153.383 33.2422V33.1641C153.383 32.8776 153.331 32.5911 153.227 32.3047C153.122 32.0182 153.07 31.7188 153.07 31.4062L153.148 30.8984L152.914 29.6484L152.992 28.9453L152.758 26.6797L152.836 25.0781C152.836 24.9219 152.836 24.7656 152.836 24.6094L152.602 23.5156L152.68 22.8516L152.602 21.6016L152.68 20.6641L152.562 19.2969C152.536 18.9844 152.523 18.6719 152.523 18.3594C152.549 18.0469 152.562 17.7344 152.562 17.4219L152.445 16.6797C152.445 16.3672 152.419 16.0026 152.367 15.5859C152.211 15.638 152.029 15.651 151.82 15.625C151.638 15.5729 151.495 15.651 151.391 15.8594C151.286 15.7812 151.221 15.7422 151.195 15.7422L150.609 15.9766C150.583 15.8464 150.505 15.7943 150.375 15.8203C150.271 15.8464 150.18 15.8594 150.102 15.8594H150.062C150.01 15.625 149.984 15.4688 149.984 15.3906C149.984 14.974 150.193 14.7656 150.609 14.7656L151.078 14.6484C151.911 14.4141 152.51 14.2318 152.875 14.1016C153.266 13.9714 153.513 13.9193 153.617 13.9453C153.721 13.9714 153.826 14.0625 153.93 14.2188C154.034 14.375 154.112 14.5443 154.164 14.7266C154.216 14.9089 154.242 15.1042 154.242 15.3125C154.268 15.4948 154.294 15.6771 154.32 15.8594L154.477 16.5234ZM168.305 25.2734C168.409 24.3359 168.461 23.6849 168.461 23.3203C168.461 22.9297 168.422 22.6042 168.344 22.3438C168.474 22.0833 168.526 21.8229 168.5 21.5625C168.5 21.276 168.513 21.0286 168.539 20.8203C168.591 20.612 168.63 20.4688 168.656 20.3906C168.708 20.2865 168.734 20.1823 168.734 20.0781L168.656 19.2578C168.708 19.1797 168.734 19.0625 168.734 18.9062V18.3203C168.734 18.0599 168.682 17.8385 168.578 17.6562H168.344L167.328 17.6953C167.12 17.6953 166.898 17.6562 166.664 17.5781C166.612 17.4219 166.547 17.3307 166.469 17.3047C166.391 17.2526 166.352 17.1615 166.352 17.0312C166.352 16.901 166.365 16.8099 166.391 16.7578C166.833 16.3932 167.953 16.2109 169.75 16.2109C170.089 16.2109 170.323 16.25 170.453 16.3281C170.583 16.3802 170.688 16.5495 170.766 16.8359C170.87 17.0964 170.922 17.2917 170.922 17.4219L170.844 17.8906L171 18.3984L170.922 19.5312L171 20.6641L170.922 21.7188L171 22.2656L170.766 24.1016L170.844 25.8594C170.844 26.0938 170.818 26.3151 170.766 26.5234C170.714 26.7057 170.661 26.9271 170.609 27.1875C170.557 27.4479 170.544 27.7214 170.57 28.0078C170.596 28.2943 170.609 28.5286 170.609 28.7109C170.609 28.8672 170.596 28.9453 170.57 28.9453C170.544 28.9453 170.531 29.0104 170.531 29.1406C170.531 29.2708 170.57 29.4271 170.648 29.6094C170.727 29.7656 170.74 29.9349 170.688 30.1172C171 30.3255 171.169 30.4297 171.195 30.4297L171.938 30.1953C171.938 29.987 172.081 29.8828 172.367 29.8828C172.445 29.8828 172.471 29.9349 172.445 30.0391C172.445 30.1432 172.497 30.2214 172.602 30.2734C172.706 30.3255 172.784 30.3906 172.836 30.4688C172.914 30.5208 172.966 30.625 172.992 30.7812C173.044 30.9115 173.096 31.0286 173.148 31.1328C173.122 31.3151 173.005 31.4714 172.797 31.6016C172.615 31.7057 172.419 31.7578 172.211 31.7578C172.029 31.7578 171.885 31.6797 171.781 31.5234C171.573 31.7578 171.326 31.875 171.039 31.875C170.779 31.875 170.557 31.8359 170.375 31.7578C170.141 31.7578 169.75 31.849 169.203 32.0312H168.969L168.461 32.0703C168.305 32.0703 168.174 32.0312 168.07 31.9531C167.706 32.0573 167.393 32.1094 167.133 32.1094C166.716 32.3177 166.352 32.4219 166.039 32.4219C165.727 32.4219 165.57 32.2917 165.57 32.0312C165.336 32.0312 165.219 31.9141 165.219 31.6797C165.219 31.4453 165.284 31.276 165.414 31.1719C165.701 30.9115 166 30.7682 166.312 30.7422C166.651 30.6901 166.938 30.612 167.172 30.5078C167.406 30.4036 167.602 30.3516 167.758 30.3516C167.914 30.3516 168.044 30.3255 168.148 30.2734V29.8828L168.07 28.4375L168.344 25.7422L168.305 25.2734ZM168.188 9.14062L167.641 9.0625C167.589 8.98438 167.523 8.90625 167.445 8.82812C167.367 8.75 167.302 8.64583 167.25 8.51562C167.224 8.38542 167.185 8.32031 167.133 8.32031C167.107 8.32031 167.094 8.1901 167.094 7.92969C167.094 7.66927 167.159 7.40885 167.289 7.14844C167.419 6.88802 167.68 6.65365 168.07 6.44531C168.487 6.21094 168.852 6.09375 169.164 6.09375C169.477 6.09375 169.672 6.19792 169.75 6.40625C169.854 6.61458 169.932 6.82292 169.984 7.03125C170.062 7.23958 170.141 7.40885 170.219 7.53906C170.297 7.64323 170.336 7.76042 170.336 7.89062C170.336 8.15104 170.141 8.48958 169.75 8.90625C169.385 9.29688 169.086 9.49219 168.852 9.49219C168.643 9.49219 168.474 9.375 168.344 9.14062H168.188ZM186.312 12.3047C186.651 12.3047 186.82 12.526 186.82 12.9688C186.82 13.1771 186.716 13.3854 186.508 13.5938C186.326 13.776 186.195 13.9193 186.117 14.0234C186.039 14.1016 185.987 14.1406 185.961 14.1406C185.961 14.4792 185.818 14.7005 185.531 14.8047L185.57 14.8828C185.57 14.987 185.492 15.0911 185.336 15.1953C185.362 15.2214 185.375 15.3125 185.375 15.4688C185.375 15.599 185.31 15.7292 185.18 15.8594C185.076 15.9635 185.023 16.1068 185.023 16.2891C184.893 16.3151 184.789 16.3672 184.711 16.4453C184.633 16.5234 184.529 16.5755 184.398 16.6016C184.346 16.7318 184.281 16.849 184.203 16.9531C184.125 17.0312 184.047 17.1224 183.969 17.2266C183.865 17.2786 183.799 17.3698 183.773 17.5C183.747 17.6302 183.656 17.6953 183.5 17.6953H183.422C183.214 17.487 183.109 17.2396 183.109 16.9531C183.109 16.6406 183.188 16.3281 183.344 16.0156C183.526 15.6771 183.76 15.4688 184.047 15.3906C184.021 15.2083 184.008 15.0391 184.008 14.8828C184.008 14.7005 183.969 14.5312 183.891 14.375C183.839 14.1927 183.734 14.0625 183.578 13.9844C183.448 13.9062 183.37 13.776 183.344 13.5938C183.135 13.5938 182.94 13.5417 182.758 13.4375C182.576 13.3333 182.38 13.2812 182.172 13.2812L181.195 13.4375C181.117 13.4375 181 13.4115 180.844 13.3594C180.583 13.4375 180.388 13.6068 180.258 13.8672C180.154 14.1016 179.971 14.2578 179.711 14.3359C179.607 14.5703 179.477 14.7786 179.32 14.9609C179.164 15.1432 179.047 15.3516 178.969 15.5859C179.073 15.8984 179.112 16.1979 179.086 16.4844C179.06 16.7708 179.047 17.0573 179.047 17.3438L179.086 17.8516C179.294 18.6589 179.568 19.4922 179.906 20.3516C180.271 21.2109 180.466 21.6667 180.492 21.7188C180.518 21.7448 180.531 21.8099 180.531 21.9141C180.531 21.9922 180.583 22.1224 180.688 22.3047C180.792 22.487 180.896 22.6823 181 22.8906C181.13 23.0729 181.26 23.2552 181.391 23.4375C181.521 23.6198 181.638 23.8411 181.742 24.1016C181.872 24.3359 182.003 24.6615 182.133 25.0781C182.263 25.4688 182.38 25.7943 182.484 26.0547C182.615 26.2891 182.706 26.4453 182.758 26.5234C182.836 26.5755 182.901 26.6536 182.953 26.7578C183.031 26.862 183.057 26.9661 183.031 27.0703C183.031 27.1745 183.057 27.3177 183.109 27.5C183.161 27.6562 183.227 27.8125 183.305 27.9688C183.409 28.099 183.461 28.2812 183.461 28.5156C183.539 28.5938 183.591 28.6979 183.617 28.8281C183.669 28.9323 183.747 29.0234 183.852 29.1016C183.904 29.5182 184.008 29.9219 184.164 30.3125C184.346 30.7031 184.438 31.0417 184.438 31.3281C184.438 31.5885 184.464 31.7318 184.516 31.7578C184.568 31.7839 184.594 31.9271 184.594 32.1875C184.594 32.4219 184.529 32.7995 184.398 33.3203C184.268 33.8411 184.203 34.3229 184.203 34.7656C184.203 35.1823 184.125 35.4948 183.969 35.7031C183.812 35.9375 183.76 36.1719 183.812 36.4062C183.682 36.4583 183.591 36.5495 183.539 36.6797C183.487 36.8359 183.383 36.9401 183.227 36.9922C183.253 37.0182 183.266 37.0443 183.266 37.0703C183.266 37.0964 183.174 37.1875 182.992 37.3438C182.836 37.5 182.732 37.5781 182.68 37.5781C182.602 37.8125 182.562 37.9688 182.562 38.0469C182.354 38.151 182.172 38.2682 182.016 38.3984C181.859 38.5547 181.677 38.6719 181.469 38.75C181.312 38.9062 181.13 39.0495 180.922 39.1797C180.74 39.3099 180.596 39.4792 180.492 39.6875C180.258 39.7396 180.023 39.8177 179.789 39.9219C179.555 40.026 179.346 40.0781 179.164 40.0781C179.008 40.0781 178.852 40.0521 178.695 40C178.565 40.026 178.435 40.0781 178.305 40.1562C178.201 40.2344 178.057 40.2734 177.875 40.2734L177.367 40.2344L176.742 40.3516C176.586 40.3516 176.443 40.2734 176.312 40.1172C176.182 39.9609 176.065 39.8177 175.961 39.6875H175.844C175.583 39.6875 175.388 39.6094 175.258 39.4531C175.154 39.2969 174.997 39.1797 174.789 39.1016C174.633 38.763 174.451 38.4505 174.242 38.1641C174.034 37.9036 173.891 37.6302 173.812 37.3438C173.734 37.0833 173.643 36.901 173.539 36.7969C173.409 36.7188 173.344 36.6016 173.344 36.4453L173.383 35.9375L173.266 35.0391C173.266 34.8047 173.331 34.5964 173.461 34.4141C173.591 34.2057 173.656 33.9974 173.656 33.7891C173.708 33.7891 174.151 33.3724 174.984 32.5391C175.193 32.5391 175.362 32.5 175.492 32.4219C175.622 32.3438 175.792 32.2786 176 32.2266L176.742 32.5781C177.159 32.7865 177.432 33.0339 177.562 33.3203C177.719 33.5807 177.875 33.8151 178.031 34.0234C178.188 34.2057 178.266 34.388 178.266 34.5703C178.266 34.7266 178.174 34.8698 177.992 35C177.836 35.1562 177.667 35.2344 177.484 35.2344C177.328 35.2344 177.146 35.1562 176.938 35C176.755 34.8698 176.56 34.7656 176.352 34.6875C176.221 34.5573 176.13 34.401 176.078 34.2188C176.052 34.0104 175.961 33.8802 175.805 33.8281L174.789 34.2969L174.867 34.8438V34.9219C174.737 35.026 174.698 35.2083 174.75 35.4688C174.802 35.7292 174.724 35.9115 174.516 36.0156C174.672 36.1458 174.75 36.2891 174.75 36.4453C174.75 36.6016 174.789 36.7839 174.867 36.9922C174.971 37.2266 175.128 37.4609 175.336 37.6953C175.57 37.9297 175.753 38.1771 175.883 38.4375H175.961C176.195 38.4375 176.365 38.5547 176.469 38.7891C176.859 38.8672 177.146 38.9062 177.328 38.9062H177.523L177.602 38.8281L177.836 38.8672C178.122 38.8672 178.383 38.8151 178.617 38.7109C178.852 38.6328 179.099 38.5807 179.359 38.5547C179.568 38.4505 179.75 38.3333 179.906 38.2031C180.062 38.0729 180.219 37.9557 180.375 37.8516C180.531 37.7474 180.688 37.6562 180.844 37.5781C181 37.5 181.156 37.4089 181.312 37.3047L181.391 37.1484H181.547C181.573 37.0964 181.573 37.0573 181.547 37.0312C181.547 37.0052 181.56 36.9531 181.586 36.875C181.638 36.8229 181.703 36.7708 181.781 36.7188C181.859 36.6667 181.911 36.5885 181.938 36.4844C181.99 36.3802 182.016 36.2109 182.016 35.9766C182.016 35.7682 182.029 35.599 182.055 35.4688C182.081 35.3385 182.12 35.2083 182.172 35.0781C182.224 34.974 182.25 34.8828 182.25 34.8047L182.133 34.2969L182.172 33.7109C182.172 33.2682 182.081 32.8385 181.898 32.4219C181.716 31.9792 181.638 31.5365 181.664 31.0938C181.56 30.9375 181.456 30.7812 181.352 30.625L181.234 30.3125L181.039 30.1953L180.961 29.6484C180.909 29.5182 180.818 29.375 180.688 29.2188C180.557 29.0365 180.479 28.8542 180.453 28.6719C180.427 28.4896 180.388 28.3464 180.336 28.2422C180.31 28.112 180.297 27.9688 180.297 27.8125C180.297 27.6562 180.284 27.526 180.258 27.4219C180.206 27.3177 180.154 27.2917 180.102 27.3438C180.076 27.3698 180.062 27.2917 180.062 27.1094V27.0703C179.984 26.862 179.841 26.6146 179.633 26.3281C179.424 26.0417 179.268 25.7943 179.164 25.5859C179.086 25.3516 179.034 25.1823 179.008 25.0781C178.982 24.9479 178.904 24.8438 178.773 24.7656C178.799 24.7396 178.812 24.6875 178.812 24.6094C178.812 24.1927 178.63 23.8932 178.266 23.7109V23.4375C178.266 23.3333 178.24 23.2812 178.188 23.2812C178.161 23.2812 178.135 23.2552 178.109 23.2031L177.875 22.6953C177.615 22.2526 177.458 21.875 177.406 21.5625C177.354 21.224 177.302 20.9505 177.25 20.7422C177.224 20.5078 177.211 20.3255 177.211 20.1953C177.237 20.0391 177.224 19.8828 177.172 19.7266C177.146 19.5443 177.107 19.349 177.055 19.1406C177.003 18.9323 176.977 18.737 176.977 18.5547C176.977 18.3464 177.003 18.0729 177.055 17.7344C177.133 17.3698 177.146 17.0443 177.094 16.7578C177.068 16.4453 177.081 16.1458 177.133 15.8594L177.289 15.6641V15.5078C177.289 15.4036 177.484 14.987 177.875 14.2578C178.292 13.5286 178.513 13.138 178.539 13.0859C178.591 13.0339 178.656 12.9818 178.734 12.9297C178.839 12.8776 178.917 12.8255 178.969 12.7734L180.023 11.6406C180.31 11.5885 180.596 11.5365 180.883 11.4844C181.169 11.4062 181.456 11.3672 181.742 11.3672L182.133 11.4453C182.185 11.4453 182.211 11.4323 182.211 11.4062C182.211 11.3542 182.237 11.3411 182.289 11.3672L182.367 11.4844C182.471 11.5365 182.589 11.5625 182.719 11.5625C182.849 11.5365 182.953 11.5495 183.031 11.6016C183.135 11.6536 183.227 11.7448 183.305 11.875C183.409 11.9792 183.487 12.0312 183.539 12.0312C183.591 12.0052 183.63 11.9922 183.656 11.9922C183.682 11.9922 183.721 11.9792 183.773 11.9531L183.852 12.0312C183.878 12.1615 183.93 12.2526 184.008 12.3047C184.086 12.3568 184.177 12.4479 184.281 12.5781V12.7344L184.438 12.6953C184.698 13.0339 184.893 13.2031 185.023 13.2031C185.18 13.2031 185.284 13.1641 185.336 13.0859C185.414 12.9818 185.492 12.8776 185.57 12.7734C185.648 12.6693 185.727 12.5651 185.805 12.4609C185.909 12.3568 186.078 12.3047 186.312 12.3047ZM197.25 28.4766L197.914 28.3984C198.044 28.3984 198.161 28.4505 198.266 28.5547C198.396 28.6589 198.552 28.6849 198.734 28.6328C198.812 28.8151 199.008 28.9714 199.32 29.1016C199.346 29.3359 199.503 29.5182 199.789 29.6484C199.815 29.8568 199.867 30.0391 199.945 30.1953C200.023 30.3255 200.049 30.4948 200.023 30.7031V30.7812L199.906 30.8594C199.906 30.9115 199.919 30.9375 199.945 30.9375C199.997 30.9375 200.023 31.0156 200.023 31.1719C200.023 31.3021 199.958 31.5234 199.828 31.8359C199.724 32.1484 199.607 32.3958 199.477 32.5781C199.424 32.9427 199.32 33.2422 199.164 33.4766C199.008 33.6849 198.865 33.9453 198.734 34.2578C198.5 34.2839 198.292 34.388 198.109 34.5703C197.927 34.7526 197.797 34.8438 197.719 34.8438C197.641 34.8177 197.523 34.8438 197.367 34.9219C197.237 35 197.133 35.1302 197.055 35.3125L196.859 35.2344C196.781 35.2344 196.716 35.2734 196.664 35.3516C196.612 35.4557 196.508 35.5208 196.352 35.5469C196.195 35.599 195.987 35.612 195.727 35.5859C195.466 35.5859 195.206 35.651 194.945 35.7812C194.607 35.4948 194.307 35.3646 194.047 35.3906C193.995 35.2083 193.865 35.0781 193.656 35C193.448 34.9479 193.253 34.8828 193.07 34.8047C192.914 34.7005 192.758 34.5833 192.602 34.4531C192.471 34.3229 192.315 34.2188 192.133 34.1406C192.107 33.9844 192.042 33.8802 191.938 33.8281C191.833 33.75 191.794 33.6068 191.82 33.3984L191.391 33.2031V33.0469C191.391 32.6562 191.339 32.3958 191.234 32.2656C191.156 32.1354 191.091 31.9792 191.039 31.7969C191.013 31.6146 191 31.4583 191 31.3281C191.026 31.1719 191.039 31.0156 191.039 30.8594C191.039 30.6771 190.987 30.4427 190.883 30.1562C190.779 29.8698 190.727 29.6224 190.727 29.4141C190.753 29.1797 190.74 28.9062 190.688 28.5938C190.661 28.2812 190.609 27.8906 190.531 27.4219C190.453 26.9531 190.388 26.5365 190.336 26.1719C190.284 25.7812 190.271 25.4557 190.297 25.1953C190.323 24.9089 190.336 24.6354 190.336 24.375V23.7109C190.336 23.3724 190.297 23.125 190.219 22.9688C190.167 22.8125 190.141 22.6953 190.141 22.6172L190.297 21.7969L190.141 21.3672L190.297 20.2734L190.336 18.8281C190.336 18.0469 190.232 17.513 190.023 17.2266C189.841 16.9401 189.672 16.7969 189.516 16.7969C189.385 16.7969 189.242 16.849 189.086 16.9531C188.93 17.0573 188.734 17.0964 188.5 17.0703C188.292 17.0443 188.122 17.0312 187.992 17.0312L187.719 17.0703L187.133 16.9531C186.977 16.6406 186.898 16.4062 186.898 16.25C186.898 16.0938 186.938 15.9635 187.016 15.8594C187.094 15.7552 187.159 15.638 187.211 15.5078C187.393 15.4557 187.628 15.4297 187.914 15.4297C188.227 15.4297 188.448 15.3516 188.578 15.1953C188.656 15.2734 188.76 15.3125 188.891 15.3125C189.021 15.3125 189.151 15.2865 189.281 15.2344C189.411 15.1823 189.555 15.1693 189.711 15.1953C189.945 14.8307 190.062 14.349 190.062 13.75L189.867 11.1328L189.945 10.5078L189.867 9.92188C189.919 9.76562 189.945 9.66146 189.945 9.60938L189.867 9.375C189.867 9.29688 189.919 9.08854 190.023 8.75C190.154 8.38542 190.245 8.125 190.297 7.96875C190.349 7.78646 190.388 7.65625 190.414 7.57812C190.466 7.5 190.531 7.42188 190.609 7.34375C190.688 7.26562 190.727 7.17448 190.727 7.07031H190.883L191.117 6.99219C191.664 6.99219 191.938 7.31771 191.938 7.96875V8.47656C191.938 8.71094 192.003 8.95833 192.133 9.21875C192.159 10.1302 192.237 11.0417 192.367 11.9531C192.497 12.8385 192.589 13.75 192.641 14.6875C192.875 14.8438 193.148 14.9219 193.461 14.9219L194.906 14.7656C195.297 14.7656 195.544 14.8438 195.648 15C195.753 15.1302 195.857 15.1953 195.961 15.1953L195.922 15.3125L196.039 15.7422C196.039 16.0286 195.922 16.224 195.688 16.3281C195.453 16.4323 195.245 16.5495 195.062 16.6797C194.333 16.3932 193.839 16.25 193.578 16.25C193.318 16.25 193.109 16.2891 192.953 16.3672C192.875 16.5234 192.836 16.6667 192.836 16.7969L193.031 17.6953L192.875 19.3359L193.031 20.1172L192.953 20.8984L193.031 22.2656L192.875 23.5547C192.875 24.362 192.979 24.8177 193.188 24.9219C193.214 24.9479 193.227 25.013 193.227 25.1172L193.188 26.4453L193.5 30.5469L193.422 31.2109C193.422 31.3932 193.474 31.6406 193.578 31.9531C193.682 32.2656 193.76 32.513 193.812 32.6953C193.865 32.8776 193.917 33.0078 193.969 33.0859C194.021 33.138 194.099 33.1771 194.203 33.2031C194.307 33.2292 194.385 33.2682 194.438 33.3203C194.516 33.3724 194.555 33.4245 194.555 33.4766C194.555 33.5286 194.581 33.5938 194.633 33.6719C194.685 33.75 194.815 33.8411 195.023 33.9453C195.232 34.0495 195.44 34.1016 195.648 34.1016C195.883 34.1016 196.117 34.0495 196.352 33.9453C196.612 33.8411 196.833 33.737 197.016 33.6328C197.198 33.5026 197.367 33.3854 197.523 33.2812C197.68 33.151 197.849 33.0729 198.031 33.0469L197.992 32.9688C197.992 32.8646 198.044 32.7734 198.148 32.6953C198.279 32.5911 198.37 32.4609 198.422 32.3047L198.539 31.2891C198.539 30.6901 198.37 30.3906 198.031 30.3906C197.719 30.3906 197.523 30.4948 197.445 30.7031C197.393 30.9115 197.302 31.1198 197.172 31.3281C197.042 31.4062 196.898 31.4453 196.742 31.4453C196.299 31.4453 195.935 31.224 195.648 30.7812V30.4297C195.648 30.2734 195.701 30.1953 195.805 30.1953C195.753 30.1432 195.727 30.0781 195.727 30V29.4922C195.779 29.3099 195.948 29.1406 196.234 28.9844C196.547 28.8281 196.768 28.7109 196.898 28.6328C197.055 28.5547 197.172 28.5026 197.25 28.4766ZM202.523 17.1094L201.508 17.4219L201.156 17.3438L200.648 17.5391C200.388 17.5391 200.258 17.3958 200.258 17.1094L200.297 16.7578C200.297 16.6797 200.284 16.6276 200.258 16.6016C200.414 16.5495 200.518 16.4974 200.57 16.4453C200.648 16.3672 200.792 16.3411 201 16.3672L201.625 16.0547C201.911 16.1068 202.172 16.1328 202.406 16.1328C202.667 16.1328 202.914 16.0417 203.148 15.8594C203.383 15.6771 203.656 15.5859 203.969 15.5859H204.711L205.922 15.4297C206.234 15.6641 206.391 15.8854 206.391 16.0938C206.391 16.276 206.286 16.4062 206.078 16.4844C205.896 16.5625 205.753 16.6667 205.648 16.7969L205.57 16.8359C205.44 16.8359 205.349 16.7969 205.297 16.7188C205.245 16.6406 205.141 16.6016 204.984 16.6016C204.958 16.7057 204.945 16.9401 204.945 17.3047C204.945 17.6432 204.997 18.0208 205.102 18.4375C205.206 18.8281 205.258 19.2578 205.258 19.7266L205.18 20.3516C205.18 20.612 205.31 21.0938 205.57 21.7969C205.596 21.8229 205.661 21.8359 205.766 21.8359C205.896 21.8359 205.974 21.7969 206 21.7188C206.052 21.6146 206.104 21.5365 206.156 21.4844C206.208 21.4062 206.234 21.3672 206.234 21.3672C206.26 21.3672 206.286 21.3281 206.312 21.25C206.339 21.1719 206.352 21.0938 206.352 21.0156C206.378 20.9375 206.417 20.8594 206.469 20.7812C206.521 20.6771 206.573 20.612 206.625 20.5859C206.677 20.5339 206.794 20.3906 206.977 20.1562C207.185 19.8958 207.393 19.7135 207.602 19.6094C207.628 19.4792 207.68 19.388 207.758 19.3359C207.836 19.2839 207.862 19.1797 207.836 19.0234C207.888 19.0234 208.044 18.9453 208.305 18.7891C208.591 18.6068 208.747 18.4896 208.773 18.4375C208.826 18.3854 208.839 18.3464 208.812 18.3203C208.812 18.2682 208.826 18.2292 208.852 18.2031C208.904 18.1771 208.943 18.1771 208.969 18.2031C208.995 18.2292 209.047 18.1641 209.125 18.0078C209.203 17.8255 209.307 17.7474 209.438 17.7734C209.594 17.7734 209.789 17.7083 210.023 17.5781C210.779 17.1094 211.469 16.875 212.094 16.875C212.745 16.875 213.122 16.9141 213.227 16.9922C213.357 17.0703 213.409 17.1354 213.383 17.1875C213.383 17.2135 213.409 17.2396 213.461 17.2656L213.695 17.3438C213.852 17.5 213.982 17.7604 214.086 18.125C214.216 18.4896 214.333 18.7891 214.438 19.0234C214.542 19.2318 214.62 19.349 214.672 19.375C214.724 19.375 214.75 19.4531 214.75 19.6094C214.75 19.7656 214.763 19.8698 214.789 19.9219C214.841 19.9479 214.88 20.026 214.906 20.1562C214.958 20.2865 214.971 20.4688 214.945 20.7031C214.919 20.9115 215.023 21.0807 215.258 21.2109H215.297C215.635 21.2109 215.844 21.0156 215.922 20.625C216.208 20.4427 216.43 20.1042 216.586 19.6094C216.612 19.5573 216.651 19.5182 216.703 19.4922C216.755 19.4661 216.807 19.4271 216.859 19.375C216.911 19.2188 216.964 19.0625 217.016 18.9062C217.068 18.724 217.12 18.5677 217.172 18.4375C217.25 18.3594 217.328 18.2943 217.406 18.2422C217.51 18.1641 217.602 18.0729 217.68 17.9688V17.8125H217.836C217.966 17.6302 218.096 17.4219 218.227 17.1875C218.383 16.9271 218.513 16.7578 218.617 16.6797C218.721 16.5755 218.812 16.4974 218.891 16.4453C218.995 16.3932 219.177 16.276 219.438 16.0938C220.557 15.2865 221.56 14.8828 222.445 14.8828H222.602C223.357 15.3776 223.943 16.5104 224.359 18.2812C224.464 18.6979 224.568 19.0885 224.672 19.4531V19.5312C224.594 19.9219 224.594 20.1302 224.672 20.1562C224.75 20.1823 224.789 20.3516 224.789 20.6641C224.789 20.9766 224.854 21.3281 224.984 21.7188C225.115 22.1094 225.18 22.526 225.18 22.9688L225.062 25.3906L225.141 26.1328C225.141 26.2109 225.115 26.2891 225.062 26.3672C225.01 26.4193 224.971 26.5234 224.945 26.6797C224.919 26.8099 224.919 26.9661 224.945 27.1484C224.971 27.3047 224.984 27.5 224.984 27.7344L224.789 29.4141V30.3125C224.789 30.599 224.815 30.8984 224.867 31.2109C224.893 31.3672 225.076 31.4453 225.414 31.4453C225.779 31.4453 226.091 31.3932 226.352 31.2891C226.638 31.1849 226.898 31.1068 227.133 31.0547L227.523 31.3281C227.523 31.4062 227.576 31.4453 227.68 31.4453C227.81 31.4193 227.875 31.4453 227.875 31.5234V32.0312C227.745 32.2135 227.549 32.3177 227.289 32.3438C227.055 32.3698 226.859 32.474 226.703 32.6562H226.43C226.273 32.6562 226.013 32.6953 225.648 32.7734C225.31 32.8255 224.984 32.8776 224.672 32.9297C224.385 32.9557 224.06 33.0859 223.695 33.3203C223.643 33.2943 223.513 33.2812 223.305 33.2812C223.122 33.2812 222.992 33.3464 222.914 33.4766C222.862 33.4505 222.771 33.4375 222.641 33.4375C222.536 33.4375 222.419 33.4635 222.289 33.5156C222.185 33.5677 222.068 33.6068 221.938 33.6328L221.117 33.7109C220.987 33.737 220.857 33.776 220.727 33.8281C220.596 33.8802 220.453 33.9062 220.297 33.9062C220.141 33.9062 220.01 33.8411 219.906 33.7109V33.6328C219.906 33.3984 219.958 33.2292 220.062 33.125C220.167 32.9948 220.271 32.8385 220.375 32.6562L221.117 32.3828L221.43 32.2266L221.82 32.2656C221.951 32.2656 222.055 32.2135 222.133 32.1094C222.211 32.0052 222.341 31.9792 222.523 32.0312L222.758 27.5781L222.68 26.4844L222.836 26.0547L222.758 25.9766L222.836 25.625L222.758 24.8828L222.797 22.3828V21.7188C222.797 21.1979 222.745 20.7943 222.641 20.5078C222.562 20.2214 222.523 19.9609 222.523 19.7266L222.562 19.1016C222.562 18.8411 222.523 18.5807 222.445 18.3203C222.393 18.0599 222.341 17.7865 222.289 17.5C222.237 17.1875 222.185 16.9661 222.133 16.8359C222.081 16.7057 221.898 16.5495 221.586 16.3672C221.299 16.4193 221 16.4974 220.688 16.6016C220.375 16.7057 220.18 16.9271 220.102 17.2656C219.711 17.3958 219.398 17.6302 219.164 17.9688C218.956 18.2812 218.656 18.5156 218.266 18.6719L218.305 18.7891C218.305 18.8411 218.292 18.9062 218.266 18.9844C218.24 19.0365 218.214 19.1146 218.188 19.2188C218.005 19.349 217.823 19.5964 217.641 19.9609C217.484 20.2995 217.354 20.5469 217.25 20.7031C217.146 20.8333 217.094 20.9245 217.094 20.9766C217.12 21.0026 217.133 21.0417 217.133 21.0938L217.094 21.2891C216.964 21.3411 216.872 21.4323 216.82 21.5625C216.794 21.6667 216.755 21.7708 216.703 21.875C216.547 21.9271 216.456 22.0182 216.43 22.1484C216.43 22.2786 216.365 22.3698 216.234 22.4219C216.208 22.7344 216.143 22.9818 216.039 23.1641C215.961 23.3203 215.948 23.5547 216 23.8672C215.609 24.2318 215.401 24.7917 215.375 25.5469C215.349 26.276 215.31 26.849 215.258 27.2656C215.206 27.6562 215.036 27.9688 214.75 28.2031C214.542 28.2552 214.32 28.2682 214.086 28.2422C213.878 28.2161 213.669 28.2552 213.461 28.3594C213.435 28.2812 213.344 28.1641 213.188 28.0078C213.057 27.8516 213.005 27.5521 213.031 27.1094C213.057 26.6667 213.07 26.3542 213.07 26.1719L212.914 24.7266L212.992 24.2969L212.836 23.1641C212.836 22.9818 212.888 22.8385 212.992 22.7344C212.888 22.3698 212.836 21.9401 212.836 21.4453L212.914 20.3906C212.914 20.2083 212.875 20.0521 212.797 19.9219C212.719 19.7656 212.654 19.5964 212.602 19.4141C212.549 19.2057 212.523 18.9844 212.523 18.75C212.549 18.5156 212.458 18.3333 212.25 18.2031H212.016L211.352 18.2812C211.247 18.2812 211.182 18.2422 211.156 18.1641C211.13 18.0859 211.052 18.0469 210.922 18.0469H210.844C210.766 18.125 210.714 18.2422 210.688 18.3984C210.661 18.5286 210.583 18.6198 210.453 18.6719C210.349 18.6719 210.271 18.6979 210.219 18.75C210.167 18.776 210.062 18.763 209.906 18.7109C209.672 18.7891 209.542 18.8802 209.516 18.9844C209.49 19.0625 209.451 19.2188 209.398 19.4531C209.216 19.5052 209.073 19.5964 208.969 19.7266C208.865 19.8568 208.708 19.9349 208.5 19.9609C208.344 20.2214 208.122 20.4036 207.836 20.5078L207.562 21.0156C207.484 21.1979 207.354 21.3411 207.172 21.4453L207.094 22.1094C206.885 22.2396 206.716 22.4089 206.586 22.6172C206.612 23.5547 206.299 24.362 205.648 25.0391L205.609 25.1172C205.609 25.1693 205.688 25.3125 205.844 25.5469C205.792 26.0677 205.766 26.5625 205.766 27.0312V33.4766C205.87 33.5026 206.013 33.5156 206.195 33.5156L207.953 33.3203H208.07C208.357 33.6068 208.5 33.8542 208.5 34.0625V34.2578C208.161 34.4922 207.849 34.6094 207.562 34.6094H206.781C206.339 34.6094 206.026 34.6745 205.844 34.8047C205.661 34.9349 205.505 35.026 205.375 35.0781C205.245 35.1302 205.128 35.1432 205.023 35.1172C204.919 35.1172 204.802 35.1302 204.672 35.1562C204.568 35.2083 204.464 35.2474 204.359 35.2734C204.281 35.3255 204.138 35.3906 203.93 35.4688C203.747 35.5469 203.487 35.599 203.148 35.625C202.836 35.651 202.536 35.7422 202.25 35.8984L201.859 34.6484C202.12 34.5703 202.445 34.401 202.836 34.1406C202.966 34.0885 203.148 34.0104 203.383 33.9062C203.643 33.8021 203.773 33.6589 203.773 33.4766L203.656 32.9688L203.773 31.7188L203.656 30.0391V29.2188L203.734 28.5938L203.5 27.7344L203.695 26.7188C203.695 26.276 203.643 25.8594 203.539 25.4688C203.461 25.0521 203.383 24.6094 203.305 24.1406C203.253 23.6458 203.227 23.0729 203.227 22.4219C203.227 21.7448 203.174 21.1719 203.07 20.7031L203.148 20.4297C203.148 20.3255 203.096 20.1693 202.992 19.9609C202.888 19.5182 202.849 19.0625 202.875 18.5938C202.901 18.125 202.914 17.6562 202.914 17.1875C202.81 17.1354 202.68 17.1094 202.523 17.1094ZM231.273 24.7656L232.523 24.5312C232.732 24.5312 232.862 24.5182 232.914 24.4922C232.992 24.4401 233.279 24.349 233.773 24.2188C234.268 24.0885 234.737 24.0234 235.18 24.0234H236.117C236.43 24.0234 236.664 24.0755 236.82 24.1797C236.977 24.2578 237.12 24.2969 237.25 24.2969C237.38 24.2969 237.602 24.1797 237.914 23.9453C237.94 23.8411 237.953 23.737 237.953 23.6328V23.2812C237.953 22.6302 237.901 22.0573 237.797 21.5625C237.719 21.0417 237.693 20.4818 237.719 19.8828C237.771 19.2839 237.732 18.9193 237.602 18.7891C237.497 18.6328 237.419 18.5156 237.367 18.4375C237.315 18.3333 237.302 18.2292 237.328 18.125C237.354 18.0208 237.315 17.9036 237.211 17.7734C237.133 17.6172 237.094 17.513 237.094 17.4609C237.12 17.3828 237.107 17.3177 237.055 17.2656C237.029 17.2135 236.99 17.1875 236.938 17.1875C236.911 17.1615 236.872 17.1224 236.82 17.0703C236.794 17.0182 236.781 16.9792 236.781 16.9531C236.807 16.9271 236.794 16.875 236.742 16.7969C236.716 16.7188 236.651 16.6536 236.547 16.6016C236.469 16.5234 236.417 16.4193 236.391 16.2891C236.052 16.1328 235.766 15.8724 235.531 15.5078C235.401 15.4818 235.258 15.4818 235.102 15.5078C234.971 15.5078 234.841 15.4948 234.711 15.4688C234.607 15.4167 234.516 15.3776 234.438 15.3516C234.359 15.2995 234.268 15.2734 234.164 15.2734L233.266 15.5078C233.24 15.5078 233.148 15.4818 232.992 15.4297C232.862 15.4557 232.797 15.5469 232.797 15.7031C232.797 15.8333 232.771 15.9375 232.719 16.0156C232.484 16.0156 232.367 16.1068 232.367 16.2891C232.237 16.2891 232.146 16.3281 232.094 16.4062C232.042 16.4844 231.938 16.4974 231.781 16.4453C231.677 16.6276 231.573 16.8099 231.469 16.9922C231.365 17.1745 231.221 17.3177 231.039 17.4219C230.961 17.8385 230.922 18.2292 230.922 18.5938C230.922 18.9583 231 19.2188 231.156 19.375C231.312 19.5312 231.391 19.7005 231.391 19.8828C231.391 20.0391 231.326 20.2474 231.195 20.5078C231.065 20.7422 230.909 20.8594 230.727 20.8594C230.544 20.8594 230.414 20.8073 230.336 20.7031C230.284 20.599 230.232 20.4818 230.18 20.3516C230.154 20.2214 230.128 20.0911 230.102 19.9609C230.076 19.8047 229.984 19.6484 229.828 19.4922C229.906 19.4922 229.945 19.4271 229.945 19.2969C229.945 19.1667 229.906 19.0495 229.828 18.9453C229.75 18.8411 229.711 18.5547 229.711 18.0859C229.711 17.6172 229.815 17.3177 230.023 17.1875C229.997 17.1875 229.984 17.1615 229.984 17.1094L230.062 16.7578C230.036 16.7578 230.023 16.7318 230.023 16.6797L230.18 16.4453L230.141 16.3672C230.167 16.263 230.219 16.224 230.297 16.25C230.401 16.25 230.479 16.224 230.531 16.1719C230.583 16.0938 230.701 15.8724 230.883 15.5078C231.065 15.4557 231.182 15.3776 231.234 15.2734C231.312 15.1432 231.417 15.026 231.547 14.9219C231.755 14.8438 231.898 14.7526 231.977 14.6484C232.055 14.5182 232.146 14.4271 232.25 14.375C232.38 14.3229 232.51 14.2839 232.641 14.2578C232.797 14.2318 232.901 14.1406 232.953 13.9844L233.07 14.0234C233.201 14.0234 233.292 13.9844 233.344 13.9062C233.396 13.8021 233.539 13.75 233.773 13.75C234.034 13.75 234.177 13.724 234.203 13.6719C234.229 13.6198 234.333 13.5938 234.516 13.5938C234.698 13.5938 234.971 13.6849 235.336 13.8672C235.727 14.0495 235.961 14.1406 236.039 14.1406H236.156C236.339 14.349 236.586 14.4792 236.898 14.5312C237.263 14.8177 237.615 15.0911 237.953 15.3516C238.318 15.5859 238.604 15.8984 238.812 16.2891C238.865 16.3411 238.878 16.3802 238.852 16.4062C238.852 16.4323 238.891 16.4974 238.969 16.6016C239.047 16.6797 239.125 16.7839 239.203 16.9141C239.281 17.0443 239.359 17.1615 239.438 17.2656C239.516 17.3438 239.555 17.3828 239.555 17.3828C239.581 17.3568 239.594 17.4479 239.594 17.6562L239.633 17.6953L239.75 17.7734C239.906 18.1641 240.036 18.763 240.141 19.5703C240.245 20.3776 240.297 20.8464 240.297 20.9766C240.297 21.0807 240.31 21.1719 240.336 21.25C240.388 21.3021 240.44 21.4323 240.492 21.6406C240.544 21.8229 240.557 22.0964 240.531 22.4609C240.531 22.7995 240.544 23.0859 240.57 23.3203C240.622 23.5286 240.661 23.7109 240.688 23.8672C240.74 23.9974 240.766 24.1406 240.766 24.2969L240.648 24.8828L240.766 27.4219L240.648 27.9688L240.688 28.8281L240.57 30.1172L240.844 31.3672L240.609 32.4219L240.766 33.2422C240.766 33.3464 240.727 33.4245 240.648 33.4766C240.909 33.6849 241.221 33.7891 241.586 33.7891L242.797 33.5547H243.891C243.943 33.6068 243.969 33.6589 243.969 33.7109C243.969 33.763 243.995 33.8151 244.047 33.8672C244.125 33.9193 244.19 33.9583 244.242 33.9844C244.294 34.0104 244.32 34.0755 244.32 34.1797C244.32 34.2839 244.294 34.375 244.242 34.4531C244.19 34.5052 244.19 34.5964 244.242 34.7266C244.086 34.7526 243.982 34.8177 243.93 34.9219C243.904 35 243.839 35.0651 243.734 35.1172C243.656 35.1693 243.526 35.1953 243.344 35.1953C243.161 35.1953 242.94 35.2604 242.68 35.3906C242.576 35.3646 242.445 35.3516 242.289 35.3516L241.82 35.2344C241.768 35.2344 241.729 35.2604 241.703 35.3125C241.703 35.3906 241.664 35.4297 241.586 35.4297L241.273 35.3125C241.065 35.3125 240.857 35.3646 240.648 35.4688C240.466 35.5729 240.323 35.625 240.219 35.625C240.115 35.625 239.984 35.599 239.828 35.5469L239.32 35.6641C239.242 35.6641 239.138 35.612 239.008 35.5078C238.878 35.4036 238.682 35.2604 238.422 35.0781C238.188 34.8958 238.07 34.6484 238.07 34.3359L238.148 33.7891L237.992 33.3594L238.148 30.7812L238.109 29.6875C238.109 29.5052 237.966 29.4141 237.68 29.4141C237.602 29.4141 237.51 29.4531 237.406 29.5312C237.328 29.6094 237.237 29.6745 237.133 29.7266C237.055 29.7786 236.964 29.8047 236.859 29.8047C236.781 29.8047 236.69 29.8307 236.586 29.8828C236.482 29.9349 236.391 30 236.312 30.0781C236.26 30.1302 236.156 30.1693 236 30.1953C235.792 30.4818 235.518 30.625 235.18 30.625H235.062C234.984 30.651 234.919 30.7031 234.867 30.7812C234.815 30.8594 234.737 30.9375 234.633 31.0156C234.555 31.0677 234.438 31.1198 234.281 31.1719C234.151 31.1979 234.047 31.2891 233.969 31.4453L232.641 31.6797C232.51 31.6797 232.393 31.6406 232.289 31.5625C232.081 31.7708 231.872 31.875 231.664 31.875C230.622 31.875 229.932 31.6927 229.594 31.3281C229.464 31.1719 229.307 31.0286 229.125 30.8984L229.008 30.3516C228.956 30.2214 228.891 30.1172 228.812 30.0391C228.76 29.9609 228.708 29.8438 228.656 29.6875C228.63 29.5312 228.63 29.362 228.656 29.1797C228.682 28.9714 228.695 28.776 228.695 28.5938L228.617 28.1641L228.773 27.7344V27.3438C228.773 27.2396 228.799 27.1615 228.852 27.1094C228.904 27.0573 228.956 26.9922 229.008 26.9141C229.06 26.8359 229.073 26.7578 229.047 26.6797C229.021 26.5755 229.086 26.4453 229.242 26.2891C229.398 26.1328 229.477 26.0286 229.477 25.9766C229.477 25.8984 229.516 25.7943 229.594 25.6641C229.698 25.5078 229.854 25.3776 230.062 25.2734C230.297 25.1693 230.479 25.013 230.609 24.8047C230.844 24.7786 231.065 24.7656 231.273 24.7656ZM237.25 27.5391L237.562 27.6172C237.615 27.6172 237.654 27.5911 237.68 27.5391C237.732 27.4609 237.784 27.4219 237.836 27.4219L237.562 26.6016C237.25 26.5495 236.938 26.4323 236.625 26.25C236.339 26.0677 236.104 25.9766 235.922 25.9766L235.219 26.0547L234.203 26.0156L232.641 26.2891L232.133 26.2109C231.924 26.2109 231.716 26.25 231.508 26.3281C231.299 26.4062 231.091 26.4193 230.883 26.3672C230.831 26.5234 230.714 26.7057 230.531 26.9141C230.349 27.1224 230.271 27.3698 230.297 27.6562C230.349 27.9427 230.375 28.1771 230.375 28.3594L230.297 28.7109C230.297 28.763 230.31 28.8151 230.336 28.8672C230.388 28.9193 230.427 28.9844 230.453 29.0625C230.479 29.1146 230.479 29.1797 230.453 29.2578C230.453 29.3359 230.453 29.4271 230.453 29.5312C230.453 29.6354 230.505 29.7526 230.609 29.8828C230.74 30.013 230.831 30.1432 230.883 30.2734L230.922 30.2344C230.974 30.2344 231.013 30.2734 231.039 30.3516C231.091 30.4297 231.221 30.4688 231.43 30.4688C232.315 30.4688 233.227 30.2344 234.164 29.7656L234.672 29.5312C234.932 29.349 235.206 29.2188 235.492 29.1406C235.805 29.0625 236.013 28.9193 236.117 28.7109C236.534 28.0078 236.898 27.6172 237.211 27.5391H237.25ZM255.609 12.3047C255.948 12.3047 256.117 12.526 256.117 12.9688C256.117 13.1771 256.013 13.3854 255.805 13.5938C255.622 13.776 255.492 13.9193 255.414 14.0234C255.336 14.1016 255.284 14.1406 255.258 14.1406C255.258 14.4792 255.115 14.7005 254.828 14.8047L254.867 14.8828C254.867 14.987 254.789 15.0911 254.633 15.1953C254.659 15.2214 254.672 15.3125 254.672 15.4688C254.672 15.599 254.607 15.7292 254.477 15.8594C254.372 15.9635 254.32 16.1068 254.32 16.2891C254.19 16.3151 254.086 16.3672 254.008 16.4453C253.93 16.5234 253.826 16.5755 253.695 16.6016C253.643 16.7318 253.578 16.849 253.5 16.9531C253.422 17.0312 253.344 17.1224 253.266 17.2266C253.161 17.2786 253.096 17.3698 253.07 17.5C253.044 17.6302 252.953 17.6953 252.797 17.6953H252.719C252.51 17.487 252.406 17.2396 252.406 16.9531C252.406 16.6406 252.484 16.3281 252.641 16.0156C252.823 15.6771 253.057 15.4688 253.344 15.3906C253.318 15.2083 253.305 15.0391 253.305 14.8828C253.305 14.7005 253.266 14.5312 253.188 14.375C253.135 14.1927 253.031 14.0625 252.875 13.9844C252.745 13.9062 252.667 13.776 252.641 13.5938C252.432 13.5938 252.237 13.5417 252.055 13.4375C251.872 13.3333 251.677 13.2812 251.469 13.2812L250.492 13.4375C250.414 13.4375 250.297 13.4115 250.141 13.3594C249.88 13.4375 249.685 13.6068 249.555 13.8672C249.451 14.1016 249.268 14.2578 249.008 14.3359C248.904 14.5703 248.773 14.7786 248.617 14.9609C248.461 15.1432 248.344 15.3516 248.266 15.5859C248.37 15.8984 248.409 16.1979 248.383 16.4844C248.357 16.7708 248.344 17.0573 248.344 17.3438L248.383 17.8516C248.591 18.6589 248.865 19.4922 249.203 20.3516C249.568 21.2109 249.763 21.6667 249.789 21.7188C249.815 21.7448 249.828 21.8099 249.828 21.9141C249.828 21.9922 249.88 22.1224 249.984 22.3047C250.089 22.487 250.193 22.6823 250.297 22.8906C250.427 23.0729 250.557 23.2552 250.688 23.4375C250.818 23.6198 250.935 23.8411 251.039 24.1016C251.169 24.3359 251.299 24.6615 251.43 25.0781C251.56 25.4688 251.677 25.7943 251.781 26.0547C251.911 26.2891 252.003 26.4453 252.055 26.5234C252.133 26.5755 252.198 26.6536 252.25 26.7578C252.328 26.862 252.354 26.9661 252.328 27.0703C252.328 27.1745 252.354 27.3177 252.406 27.5C252.458 27.6562 252.523 27.8125 252.602 27.9688C252.706 28.099 252.758 28.2812 252.758 28.5156C252.836 28.5938 252.888 28.6979 252.914 28.8281C252.966 28.9323 253.044 29.0234 253.148 29.1016C253.201 29.5182 253.305 29.9219 253.461 30.3125C253.643 30.7031 253.734 31.0417 253.734 31.3281C253.734 31.5885 253.76 31.7318 253.812 31.7578C253.865 31.7839 253.891 31.9271 253.891 32.1875C253.891 32.4219 253.826 32.7995 253.695 33.3203C253.565 33.8411 253.5 34.3229 253.5 34.7656C253.5 35.1823 253.422 35.4948 253.266 35.7031C253.109 35.9375 253.057 36.1719 253.109 36.4062C252.979 36.4583 252.888 36.5495 252.836 36.6797C252.784 36.8359 252.68 36.9401 252.523 36.9922C252.549 37.0182 252.562 37.0443 252.562 37.0703C252.562 37.0964 252.471 37.1875 252.289 37.3438C252.133 37.5 252.029 37.5781 251.977 37.5781C251.898 37.8125 251.859 37.9688 251.859 38.0469C251.651 38.151 251.469 38.2682 251.312 38.3984C251.156 38.5547 250.974 38.6719 250.766 38.75C250.609 38.9062 250.427 39.0495 250.219 39.1797C250.036 39.3099 249.893 39.4792 249.789 39.6875C249.555 39.7396 249.32 39.8177 249.086 39.9219C248.852 40.026 248.643 40.0781 248.461 40.0781C248.305 40.0781 248.148 40.0521 247.992 40C247.862 40.026 247.732 40.0781 247.602 40.1562C247.497 40.2344 247.354 40.2734 247.172 40.2734L246.664 40.2344L246.039 40.3516C245.883 40.3516 245.74 40.2734 245.609 40.1172C245.479 39.9609 245.362 39.8177 245.258 39.6875H245.141C244.88 39.6875 244.685 39.6094 244.555 39.4531C244.451 39.2969 244.294 39.1797 244.086 39.1016C243.93 38.763 243.747 38.4505 243.539 38.1641C243.331 37.9036 243.188 37.6302 243.109 37.3438C243.031 37.0833 242.94 36.901 242.836 36.7969C242.706 36.7188 242.641 36.6016 242.641 36.4453L242.68 35.9375L242.562 35.0391C242.562 34.8047 242.628 34.5964 242.758 34.4141C242.888 34.2057 242.953 33.9974 242.953 33.7891C243.005 33.7891 243.448 33.3724 244.281 32.5391C244.49 32.5391 244.659 32.5 244.789 32.4219C244.919 32.3438 245.089 32.2786 245.297 32.2266L246.039 32.5781C246.456 32.7865 246.729 33.0339 246.859 33.3203C247.016 33.5807 247.172 33.8151 247.328 34.0234C247.484 34.2057 247.562 34.388 247.562 34.5703C247.562 34.7266 247.471 34.8698 247.289 35C247.133 35.1562 246.964 35.2344 246.781 35.2344C246.625 35.2344 246.443 35.1562 246.234 35C246.052 34.8698 245.857 34.7656 245.648 34.6875C245.518 34.5573 245.427 34.401 245.375 34.2188C245.349 34.0104 245.258 33.8802 245.102 33.8281L244.086 34.2969L244.164 34.8438V34.9219C244.034 35.026 243.995 35.2083 244.047 35.4688C244.099 35.7292 244.021 35.9115 243.812 36.0156C243.969 36.1458 244.047 36.2891 244.047 36.4453C244.047 36.6016 244.086 36.7839 244.164 36.9922C244.268 37.2266 244.424 37.4609 244.633 37.6953C244.867 37.9297 245.049 38.1771 245.18 38.4375H245.258C245.492 38.4375 245.661 38.5547 245.766 38.7891C246.156 38.8672 246.443 38.9062 246.625 38.9062H246.82L246.898 38.8281L247.133 38.8672C247.419 38.8672 247.68 38.8151 247.914 38.7109C248.148 38.6328 248.396 38.5807 248.656 38.5547C248.865 38.4505 249.047 38.3333 249.203 38.2031C249.359 38.0729 249.516 37.9557 249.672 37.8516C249.828 37.7474 249.984 37.6562 250.141 37.5781C250.297 37.5 250.453 37.4089 250.609 37.3047L250.688 37.1484H250.844C250.87 37.0964 250.87 37.0573 250.844 37.0312C250.844 37.0052 250.857 36.9531 250.883 36.875C250.935 36.8229 251 36.7708 251.078 36.7188C251.156 36.6667 251.208 36.5885 251.234 36.4844C251.286 36.3802 251.312 36.2109 251.312 35.9766C251.312 35.7682 251.326 35.599 251.352 35.4688C251.378 35.3385 251.417 35.2083 251.469 35.0781C251.521 34.974 251.547 34.8828 251.547 34.8047L251.43 34.2969L251.469 33.7109C251.469 33.2682 251.378 32.8385 251.195 32.4219C251.013 31.9792 250.935 31.5365 250.961 31.0938C250.857 30.9375 250.753 30.7812 250.648 30.625L250.531 30.3125L250.336 30.1953L250.258 29.6484C250.206 29.5182 250.115 29.375 249.984 29.2188C249.854 29.0365 249.776 28.8542 249.75 28.6719C249.724 28.4896 249.685 28.3464 249.633 28.2422C249.607 28.112 249.594 27.9688 249.594 27.8125C249.594 27.6562 249.581 27.526 249.555 27.4219C249.503 27.3177 249.451 27.2917 249.398 27.3438C249.372 27.3698 249.359 27.2917 249.359 27.1094V27.0703C249.281 26.862 249.138 26.6146 248.93 26.3281C248.721 26.0417 248.565 25.7943 248.461 25.5859C248.383 25.3516 248.331 25.1823 248.305 25.0781C248.279 24.9479 248.201 24.8438 248.07 24.7656C248.096 24.7396 248.109 24.6875 248.109 24.6094C248.109 24.1927 247.927 23.8932 247.562 23.7109V23.4375C247.562 23.3333 247.536 23.2812 247.484 23.2812C247.458 23.2812 247.432 23.2552 247.406 23.2031L247.172 22.6953C246.911 22.2526 246.755 21.875 246.703 21.5625C246.651 21.224 246.599 20.9505 246.547 20.7422C246.521 20.5078 246.508 20.3255 246.508 20.1953C246.534 20.0391 246.521 19.8828 246.469 19.7266C246.443 19.5443 246.404 19.349 246.352 19.1406C246.299 18.9323 246.273 18.737 246.273 18.5547C246.273 18.3464 246.299 18.0729 246.352 17.7344C246.43 17.3698 246.443 17.0443 246.391 16.7578C246.365 16.4453 246.378 16.1458 246.43 15.8594L246.586 15.6641V15.5078C246.586 15.4036 246.781 14.987 247.172 14.2578C247.589 13.5286 247.81 13.138 247.836 13.0859C247.888 13.0339 247.953 12.9818 248.031 12.9297C248.135 12.8776 248.214 12.8255 248.266 12.7734L249.32 11.6406C249.607 11.5885 249.893 11.5365 250.18 11.4844C250.466 11.4062 250.753 11.3672 251.039 11.3672L251.43 11.4453C251.482 11.4453 251.508 11.4323 251.508 11.4062C251.508 11.3542 251.534 11.3411 251.586 11.3672L251.664 11.4844C251.768 11.5365 251.885 11.5625 252.016 11.5625C252.146 11.5365 252.25 11.5495 252.328 11.6016C252.432 11.6536 252.523 11.7448 252.602 11.875C252.706 11.9792 252.784 12.0312 252.836 12.0312C252.888 12.0052 252.927 11.9922 252.953 11.9922C252.979 11.9922 253.018 11.9792 253.07 11.9531L253.148 12.0312C253.174 12.1615 253.227 12.2526 253.305 12.3047C253.383 12.3568 253.474 12.4479 253.578 12.5781V12.7344L253.734 12.6953C253.995 13.0339 254.19 13.2031 254.32 13.2031C254.477 13.2031 254.581 13.1641 254.633 13.0859C254.711 12.9818 254.789 12.8776 254.867 12.7734C254.945 12.6693 255.023 12.5651 255.102 12.4609C255.206 12.3568 255.375 12.3047 255.609 12.3047Z" fill="#08A400"/>
</svg>
